<?xml version="1.0" standalone="no"?>
<!DOCTYPE svg PUBLIC "-//W3C//DTD SVG 20010904//EN"
 "http://www.w3.org/TR/2001/REC-SVG-20010904/DTD/svg10.dtd">
<svg version="1.0" xmlns="http://www.w3.org/2000/svg"
 width="640.000000pt" height="640.000000pt" viewBox="0 0 640.000000 640.000000"
 preserveAspectRatio="xMidYMid meet">
<metadata>
Created by potrace 1.15, written by Peter Selinger 2001-2017
</metadata>
<g transform="translate(0.000000,640.000000) scale(0.100000,-0.100000)"
fill="#000000" stroke="none">
<path d="M0 3200 l0 -3200 3200 0 3200 0 0 3200 0 3200 -3200 0 -3200 0 0
-3200z m3895 2002 c9 -31 32 -102 52 -157 144 -404 193 -573 193 -667 0 -28
17 -88 45 -163 25 -66 71 -201 101 -300 78 -253 174 -492 289 -725 98 -199
144 -308 171 -408 25 -96 26 -104 11 -120 -15 -14 -19 -14 -31 -2 -16 17 -46
101 -46 131 0 13 -4 18 -12 13 -8 -5 -9 -2 -4 11 6 17 -11 91 -20 82 -3 -2 0
-17 6 -32 6 -15 9 -30 7 -32 -3 -2 -21 43 -42 99 -21 57 -78 189 -126 293
-150 328 -265 647 -319 885 -30 134 -35 144 -44 90 -8 -57 -68 -271 -73 -266
-3 2 5 39 16 83 48 181 61 330 40 449 -18 104 -183 611 -205 634 -16 16 -16
20 1 -64 3 -14 0 -26 -8 -29 -9 -3 -9 -8 2 -21 16 -19 21 -107 8 -146 -6 -17
-5 -21 2 -11 10 16 15 -4 25 -104 l5 -50 -19 40 c-25 52 -25 40 1 -41 23 -71
19 -119 -6 -74 -23 41 -17 15 11 -47 20 -45 28 -84 34 -173 9 -112 55 -440 66
-470 20 -53 20 -125 1 -92 -9 14 -59 331 -77 488 -10 87 -18 149 -19 136 -1
-12 -12 -68 -25 -125 -14 -56 -27 -123 -31 -149 -3 -27 -10 -48 -14 -48 -17 0
-38 48 -60 135 -34 135 -43 137 -37 10 3 -60 9 -120 12 -132 8 -30 -6 -29 -49
5 -79 61 -145 106 -194 134 -65 37 -66 44 -19 182 19 56 51 155 71 221 50 161
104 296 177 437 61 119 92 163 108 153 5 -3 16 -31 25 -63z m-1049 11 c29 -96
228 -396 343 -517 45 -48 45 -48 8 -21 -57 42 -207 236 -306 395 l-53 85 6
-49 c5 -42 4 -47 -9 -36 -21 18 -19 -3 4 -32 24 -30 40 -85 22 -73 -7 4 -4
-10 7 -31 10 -22 22 -52 26 -68 7 -27 6 -28 -11 -15 -17 13 -17 13 -2 -11 28
-45 37 -64 53 -116 8 -27 18 -58 22 -69 6 -14 4 -16 -6 -10 -8 5 -4 -5 8 -23
13 -17 30 -48 38 -68 l16 -38 -39 -32 c-21 -18 -41 -33 -45 -34 -4 0 -21 15
-37 33 -33 35 -35 32 -21 -28 l9 -40 -64 -61 c-46 -44 -64 -57 -67 -45 -2 9
-3 189 -3 401 l0 385 33 68 c33 66 57 84 68 50z m644 -548 c-14 -14 -74 -52
-135 -83 -162 -85 -297 -178 -410 -284 -129 -121 -246 -222 -295 -254 -46 -31
-46 -31 -60 -141 -6 -49 -15 -113 -20 -143 -5 -36 -4 -57 2 -61 6 -4 -26 -41
-70 -84 -73 -70 -284 -220 -523 -371 -48 -30 -105 -74 -127 -98 -37 -40 -40
-48 -35 -83 3 -21 16 -65 29 -98 14 -33 42 -105 64 -161 48 -119 65 -146 80
-124 9 15 11 13 14 -12 2 -20 110 -36 271 -42 83 -3 188 -13 235 -22 129 -26
340 -22 640 12 44 5 45 4 63 -33 24 -51 46 -181 47 -270 0 -89 26 -282 45
-343 9 -28 14 -82 13 -145 l-1 -100 -13 55 c-7 30 -18 93 -24 139 -6 47 -25
136 -40 199 -16 64 -37 168 -45 231 -22 165 -25 181 -31 181 -3 0 -39 -11 -80
-25 -142 -48 -321 -33 -902 75 -143 27 -209 44 -224 56 -25 23 -97 126 -125
179 -82 154 -102 231 -73 286 33 61 164 177 274 242 29 18 89 59 132 91 42 33
143 101 223 151 l146 92 -4 161 -4 161 74 77 c92 95 271 246 432 364 67 49
138 102 157 116 46 34 208 111 257 123 63 15 69 13 43 -14z m-395 -459 c-20
-46 -70 -120 -109 -159 -73 -73 -109 -128 -127 -195 -19 -67 -24 -187 -10
-247 l7 -30 17 37 c21 50 59 101 126 171 57 58 80 73 61 37 -6 -11 -8 -20 -4
-20 11 0 105 59 147 93 38 29 61 31 37 2 -20 -23 -10 -25 60 -11 80 16 178 20
165 7 -6 -5 -39 -18 -75 -29 l-65 -20 45 -1 c25 -1 56 -8 70 -16 16 -9 54 -14
103 -15 42 0 77 -3 77 -6 0 -7 -122 -127 -195 -193 -49 -44 -122 -82 -184 -96
-19 -4 -41 -13 -48 -21 -7 -7 -39 -18 -71 -24 -78 -17 -104 -32 -135 -79 -29
-44 -47 -52 -47 -23 -1 9 -15 -10 -33 -43 -25 -49 -32 -56 -35 -37 -4 28 15
87 44 133 23 37 90 69 179 85 22 4 45 13 50 20 6 7 37 18 70 24 73 15 144 49
210 103 68 55 125 109 125 119 0 18 -20 5 -81 -52 -74 -69 -171 -111 -256
-112 -63 -1 -188 29 -204 48 -25 30 -34 20 -116 -139 -23 -44 -26 -47 -38 -30
-19 29 -33 81 -46 173 -14 108 -14 104 11 208 20 81 40 126 40 92 0 -8 24 36
54 98 53 110 94 180 82 139 -14 -46 -15 -63 -5 -77 8 -11 12 -12 16 -3 5 14
93 123 99 123 2 0 -3 -15 -11 -34z m-737 -1108 c23 -23 12 -45 -42 -81 -81
-54 -118 -90 -213 -204 -47 -57 -88 -101 -91 -98 -9 9 150 235 204 289 l52 53
-166 7 c-131 6 -167 4 -173 -6 -7 -10 -9 -10 -9 0 0 6 -10 12 -22 12 -12 0
-18 3 -14 8 9 9 245 28 372 30 59 1 94 -2 102 -10z"/>
</g>
</svg>
