<svg id="svg" version="1.1" xmlns="http://www.w3.org/2000/svg" style="display: block;" viewBox="0 0 640 640"><path d="M0 0 C211.2 0 422.4 0 640 0 C640 211.2 640 422.4 640 640 C428.8 640 217.6 640 0 640 C0 428.8 0 217.6 0 0 Z " transform="translate(0,0)" style="fill: #000000;"/><path d="M0 0 C0.99 0.33 1.98 0.66 3 1 C4.0649327 3.61030918 4.93568423 6.12312976 5.75 8.8125 C6.2796444 10.48097929 6.81095123 12.14893158 7.34375 13.81640625 C7.61703125 14.68023926 7.8903125 15.54407227 8.171875 16.43408203 C9.45217397 20.4010461 10.85267505 24.32307717 12.25 28.25 C15.09175147 36.31761538 17.85992189 44.40971991 20.58337402 52.51794434 C21.02063942 53.81805021 21.45946979 55.11763101 21.90002441 56.41662598 C29.27608609 78.18527931 29.27608609 78.18527931 29.3125 87.75 C29.78065859 96.87909252 32.91226642 106.36839962 38 114 C38.65607639 115.8364409 39.25191952 117.69469355 39.8125 119.5625 C40.16441406 120.73039062 40.51632812 121.89828125 40.87890625 123.1015625 C41.65323573 125.75389457 42.38391694 128.4146248 43.08984375 131.0859375 C46.10696371 142.45128597 49.89510115 153.41250027 54.03320312 164.41699219 C54.92766375 166.80673799 55.8037551 169.20214635 56.671875 171.6015625 C59.04677227 178.12915015 61.54969612 184.47397977 64.78125 190.63671875 C66.13522221 193.26220973 67.35323146 195.92995336 68.5625 198.625 C70.59900156 203.14565516 72.75303548 207.58122028 75 212 C76.19012311 214.35288707 77.37749911 216.70704 78.5625 219.0625 C79.14128906 220.20847656 79.72007812 221.35445312 80.31640625 222.53515625 C86.11825032 234.47537827 91.94183583 247.53499513 92 261 C90.35 261.33 88.7 261.66 87 262 C86.49663233 260.37604003 85.99741024 258.75079459 85.5 257.125 C85.2215625 256.22007812 84.943125 255.31515625 84.65625 254.3828125 C84 252 84 252 84 250 C83.34 250 82.68 250 82 250 C78.43852936 241.32365131 75.06931628 232.62170094 72.09326172 223.72485352 C70.76053078 219.82398452 69.17812597 216.48734994 67 213 C66.29788106 211.34795544 65.63028587 209.68076231 65 208 C63.96216399 205.32678603 62.97753915 202.96256525 61.5 200.5 C58.7701359 195.9502265 57.11270979 190.90151399 55.21728516 185.95898438 C54.33447412 183.65933481 53.44908625 181.36069668 52.5625 179.0625 C52.25948975 178.27496338 51.95647949 177.48742676 51.64428711 176.67602539 C50.00605995 172.45584321 48.27268251 168.33371357 46.3125 164.25 C44.02005956 159.33126858 42.57399334 154.35388585 41.1640625 149.12109375 C40.05071313 145.06272312 38.73962036 141.0775817 37.42749023 137.07983398 C33.95636135 126.48919044 31.17234397 115.92918396 29 105 C28.75092896 106.01984985 28.75092896 106.01984985 28.49682617 107.06030273 C27.73089512 110.18699111 26.95923677 113.31223976 26.1875 116.4375 C25.92646484 117.50677734 25.66542969 118.57605469 25.39648438 119.67773438 C24.0230903 125.22217713 22.55292254 130.6530104 20.61132812 136.02734375 C19.5936826 139.31112004 19.31057004 142.58372958 19 146 C18.34 145.67 17.68 145.34 17 145 C16.28146516 141.86856867 15.70142359 138.79249671 15.1875 135.625 C15.0215332 134.63943115 14.85556641 133.6538623 14.68457031 132.63842773 C12.18365471 117.46888323 10.114716 102.22726061 8 87 C7.35636166 89.52009748 6.71627261 92.04101161 6.078125 94.5625 C5.89781738 95.26697266 5.71750977 95.97144531 5.53173828 96.69726562 C4.00537232 102.74697181 2.88902955 108.8235842 2 115 C1.01 115 0.02 115 -1 115 C-3.76950767 107.10690315 -5.9001081 99.09044645 -8 91 C-8.14236956 103.53172217 -8.14236956 103.53172217 -7 116 C-10.83077118 114.64113464 -13.71212423 112.89753237 -16.9375 110.4375 C-20.15333196 108.0168396 -23.36838744 105.73576076 -26.828125 103.68359375 C-27.46886963 103.29824463 -28.10961426 102.91289551 -28.76977539 102.51586914 C-30.0292618 101.76659098 -31.29922998 101.03460632 -32.57983398 100.32202148 C-34.32421875 99.2734375 -34.32421875 99.2734375 -37 97 C-37.72816183 92.76650096 -36.70294467 89.47883309 -35.25 85.5 C-33.72298078 81.15386838 -32.35106384 76.81561776 -31.125 72.375 C-26.87629863 57.31442821 -21.48782716 42.64502987 -16 28 C-15.34 28 -14.68 28 -14 28 C-13.91234375 27.33742187 -13.8246875 26.67484375 -13.734375 25.9921875 C-12.76971086 22.06169424 -11.07784868 18.72021707 -9.25 15.125 C-8.91484375 14.44308594 -8.5796875 13.76117188 -8.234375 13.05859375 C-5.87374259 8.3641543 -3.14396171 4.2102704 0 0 Z " transform="translate(385,113)" style="fill: #F9FAFA;"/><path d="M0 0 C-3.78751188 3.76635259 -7.27376759 6.97873875 -12.375 8.75 C-30.91968531 15.39971714 -47.78161637 29.61955304 -61.43359375 43.46875 C-64.40422543 46.39868809 -67.50708175 49.11472733 -70.6875 51.8125 C-71.55858398 52.56563477 -71.55858398 52.56563477 -72.44726562 53.33398438 C-76.76169218 57 -76.76169218 57 -79 57 C-79.33 57.99 -79.66 58.98 -80 60 C-82.21430916 61.58598269 -84.52338627 62.92545646 -86.87109375 64.3046875 C-90.10402607 66.87916938 -90.79848372 69.82760602 -91.48657227 73.83081055 C-91.59541748 74.83926025 -91.7042627 75.84770996 -91.81640625 76.88671875 C-91.94080078 77.98951172 -92.06519531 79.09230469 -92.19335938 80.22851562 C-92.31517578 81.36998047 -92.43699219 82.51144531 -92.5625 83.6875 C-92.81048502 85.96260359 -93.0616254 88.23736618 -93.31640625 90.51171875 C-93.42412354 91.51678467 -93.53184082 92.52185059 -93.64282227 93.55737305 C-94 96 -94 96 -95 98 C-94.34 98 -93.68 98 -93 98 C-93 100 -93 100 -94.3984375 101.41015625 C-95.05070312 101.95542969 -95.70296875 102.50070312 -96.375 103.0625 C-98.71057274 105.03530489 -101.0087868 107.00830976 -103.23046875 109.109375 C-109.70832884 115.22916242 -116.72218198 120.02575345 -124.18652344 124.82861328 C-126.81043983 126.52349088 -129.40473364 128.26166121 -132 130 C-134 131.33333333 -136 132.66666667 -138 134 C-138.60376465 134.40250977 -139.2075293 134.80501953 -139.82958984 135.21972656 C-141.12663387 136.08442258 -142.42375405 136.94900437 -143.72094727 137.81347656 C-145.02281928 138.68171448 -146.32409799 139.55084274 -147.62475586 140.42089844 C-150.31797182 142.22126425 -153.01474746 144.0094535 -155.7421875 145.7578125 C-157.8677704 147.12476985 -159.94606156 148.52801078 -162 150 C-162.61875 150.4434375 -163.2375 150.886875 -163.875 151.34375 C-166.36412272 153.41801893 -167.75204509 154.99739972 -168.5390625 158.1796875 C-168.91536703 164.37880951 -166.96400075 169.28180061 -164.4296875 174.8515625 C-162.95958869 178.08899321 -161.68661799 181.35910487 -160.4375 184.6875 C-157.73697961 194.03680194 -157.73697961 194.03680194 -152 201 C-151.89945313 200.27039063 -151.79890625 199.54078125 -151.6953125 198.7890625 C-150.91859346 195.67345916 -149.78711586 193.93877866 -147.875 191.375 C-145.30166311 187.85166856 -142.93826709 184.29952185 -140.6875 180.5625 C-136.84062572 174.44247274 -132.25650677 168.96821572 -127 164 C-126.34 164 -125.68 164 -125 164 C-125 163.34 -125 162.68 -125 162 C-126.34747314 162.00785522 -126.34747314 162.00785522 -127.72216797 162.01586914 C-131.05062499 162.03289725 -134.37903581 162.04544337 -137.70751953 162.05493164 C-139.1489332 162.05996474 -140.59034176 162.06679173 -142.03173828 162.07543945 C-144.10190085 162.08754983 -146.17199601 162.09323847 -148.2421875 162.09765625 C-149.4885498 162.10289307 -150.73491211 162.10812988 -152.01904297 162.11352539 C-155 162 -155 162 -157 161 C-157 161.66 -157 162.32 -157 163 C-157.99 163 -158.98 163 -160 163 C-160 162.34 -160 161.68 -160 161 C-160.99 160.67 -161.98 160.34 -163 160 C-150.27180984 157.51703866 -137.55632115 156.93249522 -124.625 156.8125 C-123.38447876 156.79292236 -123.38447876 156.79292236 -122.11889648 156.77294922 C-120.07786283 156.76995493 -118.03727074 156.87608353 -116 157 C-115.01 157.99 -115.01 157.99 -114 159 C-114.02734375 160.859375 -114.02734375 160.859375 -115 163 C-117.44140625 165.078125 -117.44140625 165.078125 -120.5625 167.25 C-130.94214971 174.73748725 -138.30380181 183.90417943 -146 194 C-146.60199219 194.71671875 -147.20398438 195.4334375 -147.82421875 196.171875 C-149.36062616 198.19844243 -149.36062616 198.19844243 -149 202 C-141.40776174 203.64979017 -133.99487005 204.21839251 -126.25 204.5 C-115.57928919 204.8979921 -104.9938969 205.54114551 -94.578125 208.05078125 C-90.18467862 209.04770736 -86.05653823 209.30610721 -81.5625 209.25 C-80.77335205 209.24540771 -79.9842041 209.24081543 -79.17114258 209.23608398 C-65.8032187 209.0431238 -52.18701556 208.22950503 -39 206 C-36.32189925 205.88803927 -33.68267314 205.95374701 -31 206 C-25.04082958 216.9195972 -24.82857194 229.24141926 -24.48388672 241.39746094 C-24.10546882 251.5390606 -23.60977433 264.78045135 -19 274 C-18.91627341 275.52148326 -18.89269973 277.04655778 -18.90234375 278.5703125 C-18.90556641 279.46621094 -18.90878906 280.36210937 -18.91210938 281.28515625 C-18.92048828 282.22230469 -18.92886719 283.15945313 -18.9375 284.125 C-18.94201172 285.06988281 -18.94652344 286.01476562 -18.95117188 286.98828125 C-18.96297643 289.32558387 -18.97944241 291.66276061 -19 294 C-20.9882824 290.27248084 -21.78227685 286.63282343 -22.5 282.5 C-22.67595703 281.53320312 -22.67595703 281.53320312 -22.85546875 280.546875 C-23.41449057 277.44520554 -23.94651973 274.34190033 -24.43359375 271.22802734 C-25.41892011 265.00357417 -26.68775683 258.92870428 -28.20849609 252.81396484 C-31.41646224 239.88908706 -33.22800659 227.28361072 -34 214 C-35.79187629 214.81203758 -37.58349451 215.62464468 -39.375 216.4375 C-40.37273437 216.88996094 -41.37046875 217.34242188 -42.3984375 217.80859375 C-43.94307583 218.51597316 -45.48044922 219.24022461 -47 220 C-50.95217384 220.25000462 -54.91583807 220.19028657 -58.875 220.1875 C-60.04289062 220.18669434 -61.21078125 220.18588867 -62.4140625 220.18505859 C-75.20727179 220.09602289 -87.76879767 219.14996709 -100.30322266 216.55322266 C-105.41727115 215.50411584 -110.55465487 214.57691621 -115.6875 213.625 C-117.44078613 213.29302612 -117.44078613 213.29302612 -119.22949219 212.9543457 C-125.01766744 211.86896499 -130.7930198 210.86001665 -136.62890625 210.06640625 C-138.17928589 209.84186768 -138.17928589 209.84186768 -139.76098633 209.61279297 C-141.69581887 209.33749457 -143.63467501 209.088634 -145.5769043 208.87158203 C-151.83335935 207.95078819 -154.72620968 206.00888791 -158.57861328 200.99487305 C-159.0476709 200.33656494 -159.51672852 199.67825684 -160 199 C-160.66128906 198.17113281 -161.32257813 197.34226562 -162.00390625 196.48828125 C-165.96084299 190.96443723 -168.91320112 185.29910307 -171.640625 179.078125 C-172.9689643 175.96559017 -172.9689643 175.96559017 -174.63671875 172.94140625 C-176.81650311 168.2383185 -176.82906403 164.07358842 -176 159 C-171.70790681 148.06150089 -157.92338965 138.62382741 -148 133 C-145.21484375 132.31640625 -145.21484375 132.31640625 -143 132 C-143 131.34 -143 130.68 -143 130 C-141.49389648 128.63061523 -141.49389648 128.63061523 -139.37109375 127.05859375 C-138.59056641 126.47924072 -137.81003906 125.8998877 -137.00585938 125.30297852 C-136.15830078 124.68737061 -135.31074219 124.0717627 -134.4375 123.4375 C-133.57576172 122.80706787 -132.71402344 122.17663574 -131.82617188 121.52709961 C-125.63013106 117.04893745 -119.31408974 112.96575672 -112.6875 109.16015625 C-112.13288086 108.82137451 -111.57826172 108.48259277 -111.00683594 108.13354492 C-109 107 -109 107 -106.12597656 105.7512207 C-102.81756069 104.11317853 -100.50780041 102.72312496 -98 100 C-96.80244717 94.64415064 -97.26443006 89.47478398 -97.75 84.0625 C-98.89745832 69.72732905 -98.89745832 69.72732905 -96.66113281 65.4230957 C-94.89680555 63.39228653 -93.07324094 61.70955598 -91 60 C-90.01426746 58.98131511 -89.03938296 57.9519675 -88.078125 56.91015625 C-87.13954911 55.95685119 -86.19677815 55.00765945 -85.25 54.0625 C-84.73687256 53.55017822 -84.22374512 53.03785645 -83.69506836 52.51000977 C-79.61990672 48.49868877 -75.33120548 44.8417604 -70.8515625 41.28515625 C-68.22243364 39.17825162 -65.66344898 37.01269588 -63.11132812 34.81445312 C-58.13431932 30.5343417 -53.11680973 26.50703229 -47.67578125 22.8203125 C-43.73056606 20.13641428 -39.86914802 17.33747231 -35.99633789 14.55053711 C-25.35323315 6.91948758 -25.35323315 6.91948758 -19.8125 4.875 C-16.84004711 3.77003287 -14.66864595 2.7790973 -12 1 C-9.84375 0.33203125 -9.84375 0.33203125 -7.5 -0.1875 C-6.7265625 -0.36667969 -5.953125 -0.54585937 -5.15625 -0.73046875 C-3 -1 -3 -1 0 0 Z " transform="translate(351,172)" style="fill: #F0F0F0;"/><path d="M0 0 C2.79233071 2.55277419 3.48967606 4.22360282 4 8 C4.66 8 5.32 8 6 8 C10.37971474 18.64650915 14.22088677 29.41621298 17.75 40.375 C18.12632568 41.53805664 18.50265137 42.70111328 18.89038086 43.89941406 C25.27906582 63.96795445 25.27906582 63.96795445 25.3125 72.75 C25.78065859 81.87909252 28.91226642 91.36839962 34 99 C34.65607639 100.8364409 35.25191952 102.69469355 35.8125 104.5625 C36.16441406 105.73039062 36.51632812 106.89828125 36.87890625 108.1015625 C37.65323573 110.75389457 38.38391694 113.4146248 39.08984375 116.0859375 C42.10696371 127.45128597 45.89510115 138.41250027 50.03320312 149.41699219 C50.92766375 151.80673799 51.8037551 154.20214635 52.671875 156.6015625 C55.04677227 163.12915015 57.54969612 169.47397977 60.78125 175.63671875 C62.13522221 178.26220973 63.35323146 180.92995336 64.5625 183.625 C66.59900156 188.14565516 68.75303548 192.58122028 71 197 C72.19012311 199.35288707 73.37749911 201.70704 74.5625 204.0625 C75.14128906 205.20847656 75.72007812 206.35445312 76.31640625 207.53515625 C82.11825032 219.47537827 87.94183583 232.53499513 88 246 C86.35 246.33 84.7 246.66 83 247 C82.49663233 245.37604003 81.99741024 243.75079459 81.5 242.125 C81.2215625 241.22007812 80.943125 240.31515625 80.65625 239.3828125 C80 237 80 237 80 235 C79.34 235 78.68 235 78 235 C74.43852936 226.32365131 71.06931628 217.62170094 68.09326172 208.72485352 C66.76053078 204.82398452 65.17812597 201.48734994 63 198 C62.29788106 196.34795544 61.63028587 194.68076231 61 193 C59.96216399 190.32678603 58.97753915 187.96256525 57.5 185.5 C54.7701359 180.9502265 53.11270979 175.90151399 51.21728516 170.95898438 C50.33447412 168.65933481 49.44908625 166.36069668 48.5625 164.0625 C48.25948975 163.27496338 47.95647949 162.48742676 47.64428711 161.67602539 C46.00605995 157.45584321 44.27268251 153.33371357 42.3125 149.25 C40.02005956 144.33126858 38.57399334 139.35388585 37.1640625 134.12109375 C36.05071313 130.06272312 34.73962036 126.0775817 33.42749023 122.07983398 C29.95636135 111.48919044 27.17234397 100.92918396 25 90 C24.82871582 90.69561035 24.65743164 91.3912207 24.48095703 92.10791016 C23.69814902 95.280899 22.91160948 98.45295154 22.125 101.625 C21.85558594 102.71941406 21.58617187 103.81382812 21.30859375 104.94140625 C21.04433594 106.00488281 20.78007812 107.06835938 20.5078125 108.1640625 C20.26691895 109.13811035 20.02602539 110.1121582 19.77783203 111.11572266 C18.96693333 114.12261446 18.01210298 117.05535321 17 120 C16.34 120 15.68 120 15 120 C14.505 120.99 14.505 120.99 14 122 C12.16402097 117.93215135 11.40400312 114.07774902 10.74609375 109.671875 C10.64031509 108.96460266 10.53453644 108.25733032 10.42555237 107.52862549 C10.20322474 106.02962901 9.98404713 104.53016237 9.76782227 103.03027344 C9.44434079 100.7972232 9.10674385 98.56665202 8.76757812 96.3359375 C7.5445011 88.08883866 6.6720518 79.91634906 6.35215759 71.58123779 C6.12507664 66.23178407 5.03491976 61.90100394 3 57 C2.42661481 55.31616749 1.86401017 53.6286236 1.3125 51.9375 C1.06113281 51.18339844 0.80976563 50.42929688 0.55078125 49.65234375 C0.36902344 49.10707031 0.18726563 48.56179687 0 48 C0.99 48.99 1.98 49.98 3 51 C2.855625 49.989375 2.71125 48.97875 2.5625 47.9375 C2.376875 46.638125 2.19125 45.33875 2 44 C1.79375 42.7625 1.5875 41.525 1.375 40.25 C1 37 1 37 2 34 C1.68160156 33.24589844 1.36320312 32.49179688 1.03515625 31.71484375 C-0.24277042 28.36330023 0.03235068 26.10860073 0.4375 22.5625 C0.94082204 18.07498664 0.81661648 14.43221554 0 10 C-0.06305204 8.20932194 -0.08671114 6.41662421 -0.0625 4.625 C-0.05347656 3.75101563 -0.04445313 2.87703125 -0.03515625 1.9765625 C-0.02355469 1.32429687 -0.01195312 0.67203125 0 0 Z " transform="translate(389,128)" style="fill: #595959;"/><path d="M0 0 C1.1577506 3.47325181 1.06866652 6.36067448 1 10 C1.55429687 9.278125 2.10859375 8.55625 2.6796875 7.8125 C3.40414063 6.884375 4.12859375 5.95625 4.875 5 C5.59429687 4.071875 6.31359375 3.14375 7.0546875 2.1875 C7.69664062 1.465625 8.33859375 0.74375 9 0 C9.66 0 10.32 0 11 0 C9.36012052 9.22432208 3.19740981 16.3500333 -4 22 C-5.01656081 23.65661761 -6.02065076 25.32111559 -7 27 C-7.66 27 -8.32 27 -9 27 C-15.38452545 38.93503632 -15.50456056 50.85339426 -15 64 C-14.34 64 -13.68 64 -13 64 C-12.773125 63.34 -12.54625 62.68 -12.3125 62 C-9.37162106 55.277991 -5.45558397 50.1789912 -0.3125 45 C0.17532959 44.50677246 0.66315918 44.01354492 1.16577148 43.50537109 C4.74244036 40 4.74244036 40 7 40 C7.33 40.66 7.66 41.32 8 42 C12.05963736 39.52203953 16.04432764 37.01010069 19.875 34.1875 C23 32 23 32 25 32 C24.34 33.65 23.68 35.3 23 37 C23.66 36.67 24.32 36.34 25 36 C26.99960012 35.960008 29.00047242 35.95653201 31 36 C31 35.34 31 34.68 31 34 C36.28 34 41.56 34 47 34 C46 36 46 36 43.71484375 36.8515625 C42.79832031 37.10679687 41.88179688 37.36203125 40.9375 37.625 C40.01839844 37.88539063 39.09929687 38.14578125 38.15234375 38.4140625 C37.44207031 38.60742188 36.73179687 38.80078125 36 39 C44.64045258 40.70450615 53.19828026 42.38641858 62 43 C62 43.66 62 44.32 62 45 C61.34 45 60.68 45 60 45 C59.773125 45.556875 59.54625 46.11375 59.3125 46.6875 C56.28161733 52.02762661 50.89606511 55.94067725 46.328125 59.94140625 C44.83812642 61.25890499 43.36710993 62.59839042 41.921875 63.96484375 C35.18722848 70.23548903 29.06156905 72.19093133 20 73 C20 73.66 20 74.32 20 75 C18.31368008 75.62817704 16.62587549 76.25236893 14.9375 76.875 C13.93203125 77.24882812 12.9265625 77.62265625 11.890625 78.0078125 C9 79 9 79 5.1875 79.75 C1.09787692 81.35377376 -0.253897 83.57465429 -2.54296875 87.22265625 C-4.31090353 89.3792523 -5.36762288 89.3615308 -8 90 C-9.33152197 91.60808341 -9.33152197 91.60808341 -10.25 93.5625 C-10.8275 94.696875 -11.405 95.83125 -12 97 C-12.33 97 -12.66 97 -13 97 C-13.46086752 88.81960159 -10.78109844 82.47187606 -6 76 C-2.16334414 73.61520096 1.59039876 72.81258008 6 72 C8.0230323 71.48777443 10.04393234 70.96704632 12.0625 70.4375 C15.01087956 69.716785 17.9610365 69.00902367 20.91796875 68.32421875 C27.05556821 66.80886661 31.87295023 64.71674382 37 61 C32.35413108 61.48484276 32.35413108 61.48484276 28 63 C18.89555623 63.55307369 10.57429249 63.43978466 2 60 C0.96875 59.608125 -0.0625 59.21625 -1.125 58.8125 C-1.74375 58.544375 -2.3625 58.27625 -3 58 C-3.20625 58.78375 -3.4125 59.5675 -3.625 60.375 C-5.19423039 64.51206194 -7.31274344 67.99412221 -9.66015625 71.73046875 C-11.12903566 74.03714501 -11.12903566 74.03714501 -12 77 C-12.66 77 -13.32 77 -14 77 C-14.268125 76.195625 -14.53625 75.39125 -14.8125 74.5625 C-15.204375 73.716875 -15.59625 72.87125 -16 72 C-16.99 71.67 -17.98 71.34 -19 71 C-24.35229349 56.61247799 -20.7062081 38.95577972 -16 25 C-15.36320312 24.87633057 -14.72640625 24.75266113 -14.0703125 24.62524414 C-11.80978947 24.20356839 -11.80978947 24.20356839 -10.875 21.99609375 C-10.58625 21.15175781 -10.2975 20.30742187 -10 19.4375 C-7.42624773 12.3898424 -4.30226169 6.14608813 0 0 Z " transform="translate(300,216)" style="fill: #939393;"/><path d="M0 0 C0.99 0.495 0.99 0.495 2 1 C-2.625 5.875 -2.625 5.875 -6 7 C-6 7.99 -6 8.98 -6 10 C-6.66 10 -7.32 10 -8 10 C-8 10.66 -8 11.32 -8 12 C-9.33906885 12.88096635 -10.68233834 13.755849 -12.0390625 14.609375 C-14.46580818 16.33033409 -16.56887211 18.2896243 -18.75 20.3125 C-25.51621014 26.48287969 -32.53789685 31.2286427 -40.625 35.5 C-43.64845165 37.14348046 -43.64845165 37.14348046 -46 39 C-46.50070321 42.37357334 -46.50070321 42.37357334 -46 46 C-47.30883876 48.63495592 -48.86599374 51.02008017 -50.46484375 53.48828125 C-52.53217252 56.87070466 -53.74936302 60.24808905 -55 64 C-37.24027069 65.64216675 -19.82064994 56.44333077 -5.1875 47 C-2 45 -2 45 1 45 C1 44.34 1 43.68 1 43 C2.98 43 4.96 43 7 43 C4.20827154 50.1062179 -3.71726969 53.40515694 -10 57 C-11.10601562 57.64453125 -12.21203125 58.2890625 -13.3515625 58.953125 C-21.05021016 63.31614583 -28.60080332 66.4992226 -37.18554688 68.74609375 C-39.67776143 69.40841168 -39.67776143 69.40841168 -43 71 C-44.46806003 74.00982691 -44.46806003 74.00982691 -45 77 C-45.99 77.495 -45.99 77.495 -47 78 C-47.46523063 79.89533342 -47.46523063 79.89533342 -47.625 82.0625 C-47.74875 83.361875 -47.8725 84.66125 -48 86 C-47.33355469 85.7834375 -46.66710937 85.566875 -45.98046875 85.34375 C-39.15311206 83.28121987 -33.11345487 82.62850429 -26 83 C-30.62108645 88.5838128 -36.59493932 89.98330118 -43.5 90.6875 C-44.99919691 90.80264916 -46.49903543 90.91080333 -48 91 C-48.10441406 91.92167969 -48.20882813 92.84335937 -48.31640625 93.79296875 C-49.07333711 99.07552136 -50.53026347 104.17288074 -51.9375 109.3125 C-52.20240234 110.31345703 -52.46730469 111.31441406 -52.74023438 112.34570312 C-52.99998047 113.30025391 -53.25972656 114.25480469 -53.52734375 115.23828125 C-53.76187256 116.10493408 -53.99640137 116.97158691 -54.23803711 117.86450195 C-55 120 -55 120 -57 122 C-59.625 121.625 -59.625 121.625 -62 121 C-62.85866864 117.36056599 -63.02716423 114.1655237 -62.875 110.4375 C-62.82107851 104.93076809 -63.76167317 100.25079374 -65.203125 94.9609375 C-67.74771918 85.50602384 -68.20647174 76.18808928 -68.53344727 66.45703125 C-68.88297026 57.78945461 -70.21274175 49.47542593 -72 41 C-68.86151272 39.26713854 -65.85989224 38.37625452 -62.375 37.5625 C-58.39979949 36.59542799 -54.43645458 35.61552348 -50.5 34.5 C-49.7265625 34.2834375 -48.953125 34.066875 -48.15625 33.84375 C-45.74968878 32.90205213 -44.04482121 31.5596094 -42 30 C-41.34 30 -40.68 30 -40 30 C-40 29.34 -40 28.68 -40 28 C-38.0083859 26.47559162 -36.02411407 25.07053131 -33.9375 23.6875 C-32.74184267 22.88071915 -31.54652741 22.07343108 -30.3515625 21.265625 C-29.7730957 20.87697266 -29.19462891 20.48832031 -28.59863281 20.08789062 C-26.63452568 18.75128992 -24.72170039 17.35112071 -22.8125 15.9375 C-20 14 -20 14 -18 14 C-18 13.34 -18 12.68 -18 12 C-16.34765625 10.67138672 -16.34765625 10.67138672 -14.0625 9.1796875 C-12.84433594 8.37724609 -12.84433594 8.37724609 -11.6015625 7.55859375 C-10.74304688 7.00300781 -9.88453125 6.44742187 -9 5.875 C-7.71222656 5.03001953 -7.71222656 5.03001953 -6.3984375 4.16796875 C-4.26960002 2.77239751 -2.13673026 1.38344445 0 0 Z " transform="translate(394,342)" style="fill: #565656;"/><path d="M0 0 C1.875 0.19140625 1.875 0.19140625 4 1 C5.0625 3.08984375 5.0625 3.08984375 6 5.9375 C13.20282431 24.58925801 28.8081064 44.22270104 43 58 C26.52571773 52.66326067 13.43848545 25.13626622 5 11 C4.67 10.34 4.34 9.68 4 9 C3.67 10.98 3.34 12.96 3 15 C2.34 14.67 1.68 14.34 1 14 C1.60183749 16.02045442 2.27306096 18.02111039 3 20 C3.66 20.33 4.32 20.66 5 21 C4.62875 21.9590625 4.62875 21.9590625 4.25 22.9375 C3.92103169 26.96736184 5.33432912 29.29903915 7.1875 32.81640625 C8.14619862 35.3929088 7.7017374 36.41976555 7 39 C7.61875 39.763125 8.2375 40.52625 8.875 41.3125 C11.46464567 44.58764011 11.54591075 46.91319678 12 51 C12.66 51.99 13.32 52.98 14 54 C14.12375 55.0725 14.2475 56.145 14.375 57.25 C14.93186919 60.59121511 15.3646565 61.89653571 17.0625 64.625 C19.91879075 69.60047421 19.91879075 69.60047421 19 73 C14.32459971 77.03784571 14.32459971 77.03784571 10.8125 76.9375 C8.79747914 75.89524783 7.56370597 74.62537325 6 73 C6.23009766 73.87011719 6.23009766 73.87011719 6.46484375 74.7578125 C6.97339263 77.30475978 7.24256901 79.40834165 7 82 C5.5049066 83.95648721 3.92174429 85.15412458 1.921875 86.58203125 C-0.02843241 88.02097757 -1.37464289 89.48190235 -2.875 91.375 C-3.57625 92.24125 -4.2775 93.1075 -5 94 C-5.33 94 -5.66 94 -6 94 C-6.66824567 75.57881278 -7.13365531 57.15476298 -7.23217773 38.72109985 C-7.24398866 36.83497136 -7.26101521 34.94886777 -7.28344727 33.06283569 C-7.31350761 30.39329349 -7.32336893 27.72438028 -7.328125 25.0546875 C-7.34043152 24.27155685 -7.35273804 23.48842621 -7.36541748 22.68156433 C-7.33154037 14.11808776 -4.44567768 7.20506382 0 0 Z " transform="translate(281,117)" style="fill: #F8F8F8;"/><path d="M0 0 C2.63748022 3.15189079 3.94278255 6.15436789 5.26953125 10.03125 C5.68082275 11.22556641 6.09211426 12.41988281 6.51586914 13.65039062 C6.94855684 14.93343285 7.38075783 16.2166393 7.8125 17.5 C8.25821963 18.80930013 8.70410282 20.1185446 9.15014648 21.42773438 C19.91264152 53.17418713 19.91264152 53.17418713 20.1875 64.3125 C20.7796593 73.64887832 23.78685978 83.18028968 29 91 C29.65607639 92.8364409 30.25191952 94.69469355 30.8125 96.5625 C31.16441406 97.73039062 31.51632812 98.89828125 31.87890625 100.1015625 C32.65323573 102.75389457 33.38391694 105.4146248 34.08984375 108.0859375 C37.10696371 119.45128597 40.89510115 130.41250027 45.03320312 141.41699219 C45.92766375 143.80673799 46.8037551 146.20214635 47.671875 148.6015625 C50.04677227 155.12915015 52.54969612 161.47397977 55.78125 167.63671875 C57.13522221 170.26220973 58.35323146 172.92995336 59.5625 175.625 C61.59900156 180.14565516 63.75303548 184.58122028 66 189 C67.19012311 191.35288707 68.37749911 193.70704 69.5625 196.0625 C70.14128906 197.20847656 70.72007812 198.35445312 71.31640625 199.53515625 C77.11825032 211.47537827 82.94183583 224.53499513 83 238 C81.35 238.33 79.7 238.66 78 239 C77.49663233 237.37604003 76.99741024 235.75079459 76.5 234.125 C76.2215625 233.22007812 75.943125 232.31515625 75.65625 231.3828125 C75 229 75 229 75 227 C74.34 227 73.68 227 73 227 C69.43852936 218.32365131 66.06931628 209.62170094 63.09326172 200.72485352 C61.76053078 196.82398452 60.17812597 193.48734994 58 190 C57.29788106 188.34795544 56.63028587 186.68076231 56 185 C54.96216399 182.32678603 53.97753915 179.96256525 52.5 177.5 C49.7701359 172.9502265 48.11270979 167.90151399 46.21728516 162.95898438 C45.33447412 160.65933481 44.44908625 158.36069668 43.5625 156.0625 C43.25948975 155.27496338 42.95647949 154.48742676 42.64428711 153.67602539 C41.00605995 149.45584321 39.27268251 145.33371357 37.3125 141.25 C35.02005956 136.33126858 33.57399334 131.35388585 32.1640625 126.12109375 C31.05071313 122.06272312 29.73962036 118.0775817 28.42749023 114.07983398 C24.95636135 103.48919044 22.17234397 92.92918396 20 82 C19.82871582 82.70084717 19.65743164 83.40169434 19.48095703 84.1237793 C18.69938169 87.31261724 17.9122487 90.50005815 17.125 93.6875 C16.85558594 94.79029297 16.58617187 95.89308594 16.30859375 97.02929688 C16.04433594 98.09599609 15.78007812 99.16269531 15.5078125 100.26171875 C15.26691895 101.24100342 15.02602539 102.22028809 14.77783203 103.22924805 C14.02360472 105.91591652 13.08630475 108.4318116 12 111 C10.98007593 107.84330389 11.04806276 105.90719717 11.9609375 102.734375 C12.29738281 101.52201172 12.29738281 101.52201172 12.640625 100.28515625 C12.88296875 99.44855469 13.1253125 98.61195313 13.375 97.75 C19.00200899 78.05546854 18.19029753 59.45098956 12 40 C11.55143976 38.52533 11.10478726 37.05007821 10.66015625 35.57421875 C8.2442895 27.63025903 5.6381674 19.74709822 2.9296875 11.8984375 C2.56101562 10.81820312 2.19234375 9.73796875 1.8125 8.625 C1.46832031 7.62726563 1.12414062 6.62953125 0.76953125 5.6015625 C0 3 0 3 0 0 Z " transform="translate(394,136)" style="fill: #EDEDED;"/><path d="M0 0 C0.79664063 0.00257813 1.59328125 0.00515625 2.4140625 0.0078125 C3.20554687 0.00523437 3.99703125 0.00265625 4.8125 0 C7.0390625 0.1328125 7.0390625 0.1328125 10.0390625 1.1328125 C10.0390625 1.7928125 10.0390625 2.4528125 10.0390625 3.1328125 C10.7609375 3.0296875 11.4828125 2.9265625 12.2265625 2.8203125 C15.0390625 3.1328125 15.0390625 3.1328125 17.9140625 5.3203125 C20.0390625 8.1328125 20.0390625 8.1328125 20.1015625 10.8203125 C19.0390625 13.1328125 19.0390625 13.1328125 16.9765625 14.4453125 C16.0175 14.785625 16.0175 14.785625 15.0390625 15.1328125 C15.0390625 15.7928125 15.0390625 16.4528125 15.0390625 17.1328125 C13.71875 18.39453125 13.71875 18.39453125 11.9140625 19.8203125 C7.71939406 23.29029229 3.50106739 27.20880273 1.0390625 32.1328125 C-0.4459375 32.6278125 -0.4459375 32.6278125 -1.9609375 33.1328125 C-3.55536403 34.99576302 -3.55536403 34.99576302 -5.0234375 37.1953125 C-6.55859375 39.41796875 -6.55859375 39.41796875 -7.9609375 41.1328125 C-8.6209375 41.1328125 -9.2809375 41.1328125 -9.9609375 41.1328125 C-10.2084375 41.7103125 -10.4559375 42.2878125 -10.7109375 42.8828125 C-12.51806304 46.13563847 -14.23446504 48.48855234 -17.82421875 49.828125 C-21.57388372 50.83086027 -25.06081337 51.37657026 -28.9609375 51.1328125 C-28.9609375 51.7928125 -28.9609375 52.4528125 -28.9609375 53.1328125 C-29.86714844 53.30296875 -30.77335937 53.473125 -31.70703125 53.6484375 C-44.21334808 55.6909614 -44.21334808 55.6909614 -54.0859375 62.8203125 C-55.9609375 65.1328125 -55.9609375 65.1328125 -59.6484375 66.0078125 C-60.7415625 66.0490625 -61.8346875 66.0903125 -62.9609375 66.1328125 C-64.71921064 64.37453936 -64.25744774 62.02373122 -64.3359375 59.6328125 C-64.32080734 53.3084057 -62.56942095 49.2362391 -58.9609375 44.1328125 C-57.9709375 44.1328125 -56.9809375 44.1328125 -55.9609375 44.1328125 C-56.9502686 47.32911296 -57.98844116 50.18358849 -59.5859375 53.1328125 C-61.08610604 56.4059075 -61.21490942 58.57720555 -60.9609375 62.1328125 C-59.6409375 59.4928125 -58.3209375 56.8528125 -56.9609375 54.1328125 C-55.6409375 54.1328125 -54.3209375 54.1328125 -52.9609375 54.1328125 C-51.73750831 52.52334475 -51.73750831 52.52334475 -50.7109375 50.4453125 C-46.27695687 43.94445027 -38.21984998 42.82547371 -30.9609375 41.1328125 C-30.3009375 41.1328125 -29.6409375 41.1328125 -28.9609375 41.1328125 C-28.9609375 40.4728125 -28.9609375 39.8128125 -28.9609375 39.1328125 C-28.17589844 38.96265625 -27.39085937 38.7925 -26.58203125 38.6171875 C-17.27500628 36.47029094 -11.72926966 33.99046283 -4.9609375 27.1328125 C-3.07771696 25.34857174 -1.18178214 23.57765579 0.7265625 21.8203125 C1.67917969 20.93730469 2.63179688 20.05429687 3.61328125 19.14453125 C6.0390625 17.1328125 6.0390625 17.1328125 8.0390625 17.1328125 C8.3484375 16.5140625 8.6578125 15.8953125 8.9765625 15.2578125 C9.6640625 13.8828125 10.3515625 12.5078125 11.0390625 11.1328125 C11.6990625 11.1328125 12.3590625 11.1328125 13.0390625 11.1328125 C13.0390625 10.4728125 13.0390625 9.8128125 13.0390625 9.1328125 C12.41 9.15601563 11.7809375 9.17921875 11.1328125 9.203125 C6.16320742 9.30790583 1.90149496 9.02236778 -2.8671875 7.64453125 C-6.82859662 6.67635103 -10.90359809 6.44875286 -14.9609375 6.1328125 C-12.61640916 3.78828416 -11.06368802 3.4401871 -7.8984375 2.5703125 C-5.18456611 1.81883879 -2.60969637 0.17675234 0 0 Z " transform="translate(348.9609375,249.8671875)" style="fill: #575757;"/><path d="M0 0 C3.18258426 3.01233189 5.25487799 6.52139119 7.5 10.25 C20.93047883 32.14576286 20.93047883 32.14576286 39 50 C34.39012241 53.91303563 29.39175491 56.81449717 24.17578125 59.8203125 C20.48021045 61.7879333 20.48021045 61.7879333 18 65 C17.34 65 16.68 65 16 65 C15.81824219 64.41992188 15.63648438 63.83984375 15.44921875 63.2421875 C14.28022548 59.60931611 13.11270328 56.22107182 11.375 52.8125 C9.91949841 49.83533765 9.4551935 47.26222006 9 44 C8.67 43.67 8.34 43.34 8 43 C7.896875 41.9275 7.79375 40.855 7.6875 39.75 C6.92996311 35.61798062 5.58005765 34.18207111 3 31 C3.16886719 30.38382813 3.33773438 29.76765625 3.51171875 29.1328125 C4.1685576 26.26374039 3.31369596 25.11576388 1.9375 22.5625 C-0.09026076 18.36856477 -0.09026076 18.36856477 0.75 14.9375 C1.1625 14.298125 1.575 13.65875 2 13 C1.01 12.67 0.02 12.34 -1 12 C-2.25 10.125 -2.25 10.125 -3 8 C-2.67 7.01 -2.34 6.02 -2 5 C-1.67 5.33 -1.34 5.66 -1 6 C-0.67 4.02 -0.34 2.04 0 0 Z " transform="translate(284,125)" style="fill: #585858;"/><path d="M0 0 C2.05078125 0.03255208 4.1015625 0.06510417 6.15234375 0.09765625 C6.15234375 1.41765625 6.15234375 2.73765625 6.15234375 4.09765625 C7.14234375 4.09765625 8.13234375 4.09765625 9.15234375 4.09765625 C9.15234375 3.43765625 9.15234375 2.77765625 9.15234375 2.09765625 C24.99234375 2.59265625 24.99234375 2.59265625 41.15234375 3.09765625 C41.15234375 3.75765625 41.15234375 4.41765625 41.15234375 5.09765625 C40.20359375 5.84015625 39.25484375 6.58265625 38.27734375 7.34765625 C28.14852309 15.73366364 19.58400635 30.27580237 14.15234375 42.09765625 C11.15234375 41.09765625 11.15234375 41.09765625 9.90625 38.7265625 C9.51308594 37.71464844 9.11992187 36.70273437 8.71484375 35.66015625 C8.28300781 34.56832031 7.85117188 33.47648437 7.40625 32.3515625 C6.99246094 31.27777344 6.57867187 30.20398438 6.15234375 29.09765625 C5.48783934 27.43012631 4.82134468 25.76338731 4.15234375 24.09765625 C3.8378125 23.2984375 3.52328125 22.49921875 3.19921875 21.67578125 C2.42835535 19.77738632 1.62070386 17.89382799 0.79296875 16.01953125 C0.3340625 14.9728125 -0.12484375 13.92609375 -0.59765625 12.84765625 C-1.025625 11.89375 -1.45359375 10.93984375 -1.89453125 9.95703125 C-2.93939258 6.82244725 -3.09434675 4.38053753 -2.84765625 1.09765625 C-1.84765625 0.09765625 -1.84765625 0.09765625 0 0 Z " transform="translate(184.84765625,330.90234375)" style="fill: #050505;"/><path d="M0 0 C1.32 0 2.64 0 4 0 C4.52355065 4.7643109 2.97676952 7.04359028 0.25 10.875 C-3.07098911 15.59764711 -3.07098911 15.59764711 -6 20.5625 C-8.9437949 25.62214749 -12.2440377 30.50422695 -16 35 C-16.66 35 -17.32 35 -18 35 C-18.99 37.475 -18.99 37.475 -20 40 C-20.66 40 -21.32 40 -22 40 C-21.97679687 40.70125 -21.95359375 41.4025 -21.9296875 42.125 C-21.81497522 48.15558862 -22.25643433 53.22443873 -24 59 C-23.34 59 -22.68 59 -22 59 C-21.9175 58.46375 -21.835 57.9275 -21.75 57.375 C-20.72418729 54.12659309 -19.03436106 51.71248141 -17 49 C-16.34 49 -15.68 49 -15 49 C-14.6596875 48.1646875 -14.6596875 48.1646875 -14.3125 47.3125 C-11.32953111 42.0567929 -6.24384914 38.47416164 -1.5 34.875 C-0.94441406 34.44574219 -0.38882812 34.01648438 0.18359375 33.57421875 C4.93815129 29.93838063 9.29477218 26.99735403 15.0625 25.3125 C15.89910156 25.06113281 16.73570312 24.80976563 17.59765625 24.55078125 C20 24 20 24 24 24 C24 24.66 24 25.32 24 26 C23.34 26 22.68 26 22 26 C21.690625 26.61875 21.38125 27.2375 21.0625 27.875 C20.375 29.25 19.6875 30.625 19 32 C19.66 31.67 20.32 31.34 21 31 C23.71760108 30.92818179 26.40859388 30.90700494 29.125 30.9375 C29.87910156 30.94201172 30.63320313 30.94652344 31.41015625 30.95117188 C33.27347127 30.96296501 35.13674555 30.98090058 37 31 C37.495 32.98 37.495 32.98 38 35 C37.01 35 36.02 35 35 35 C35 35.66 35 36.32 35 37 C29.72 37 24.44 37 19 37 C19 37.66 19 38.32 19 39 C16.36 39.33 13.72 39.66 11 40 C11.66 38.35 12.32 36.7 13 35 C12.443125 35.37511719 11.88625 35.75023437 11.3125 36.13671875 C8.88113316 37.76721307 6.44158692 39.3848544 4 41 C3.23816406 41.51046875 2.47632813 42.0209375 1.69140625 42.546875 C0.98886719 43.00578125 0.28632813 43.4646875 -0.4375 43.9375 C-1.07558594 44.35902344 -1.71367187 44.78054688 -2.37109375 45.21484375 C-2.90863281 45.47394531 -3.44617188 45.73304688 -4 46 C-4.66 45.67 -5.32 45.34 -6 45 C-5.67 44.34 -5.34 43.68 -5 43 C-15.01197575 51.26608594 -15.01197575 51.26608594 -22 62 C-23.5625 64.875 -23.5625 64.875 -25 67 C-25.66 67 -26.32 67 -27 67 C-30.46151948 56.61544157 -27.98326143 43.858239 -24 34 C-22.48828125 31.609375 -22.48828125 31.609375 -21 30 C-20.34 30 -19.68 30 -19 30 C-18.814375 29.29875 -18.62875 28.5975 -18.4375 27.875 C-17.00885594 25.01771189 -16.24047823 24.2477007 -13.8125 22.375 C-7.43196104 17.2117127 -2.93803902 10.17777609 -2 2 C-1.34 2 -0.68 2 0 2 C0 1.34 0 0.68 0 0 Z " transform="translate(312,213)" style="fill: #565656;"/><path d="M0 0 C-3.91686789 8.46191271 -10.60947055 12.51451489 -19.10546875 15.8984375 C-29.43081555 19.19225202 -41.38838301 17.8058085 -51 13 C-51.625 10.4375 -51.625 10.4375 -52 8 C-47.96090326 4.46579035 -43.82949653 2.21920368 -39 0 C-37.845 -0.598125 -36.69 -1.19625 -35.5 -1.8125 C-25.18774142 -5.52572031 -10.55772274 -1.56242161 0 0 Z " transform="translate(351,262)" style="fill: #F9F9F9;"/><path d="M0 0 C0.495 1.485 0.495 1.485 1 3 C2.65 3.33 4.3 3.66 6 4 C3.80550271 6.19449729 1.72366501 6.95217247 -1.10498047 8.12060547 C-4.18495725 9.54988611 -6.85195601 11.54375861 -9.5625 13.5625 C-10.79266206 14.46265886 -12.02313975 15.3623865 -13.25390625 16.26171875 C-13.87539551 16.71853027 -14.49688477 17.1753418 -15.13720703 17.64599609 C-16.91828212 18.94060192 -18.71670348 20.20421194 -20.52734375 21.45703125 C-27.39728544 26.22694024 -33.84256287 31.28897325 -40.14111328 36.79345703 C-44.28493636 40.41440023 -48.53123658 43.78249034 -53 47 C-53.99 46.34 -54.98 45.68 -56 45 C-57.32 45.99 -58.64 46.98 -60 48 C-60.66 47.67 -61.32 47.34 -62 47 C-60.71034824 45.62437146 -59.37310707 44.29233607 -58 43 C-57.34 43 -56.68 43 -56 43 C-56 42.34 -56 41.68 -56 41 C-55.01 40.34 -54.02 39.68 -53 39 C-52.42006301 36.80545319 -52.42006301 36.80545319 -52.3125 34.375 C-52.24675781 33.55773437 -52.18101562 32.74046875 -52.11328125 31.8984375 C-52.07589844 31.27195313 -52.03851563 30.64546875 -52 30 C-51.67 30 -51.34 30 -51 30 C-50.67 31.98 -50.34 33.96 -50 36 C-48.83739272 34.80319839 -47.67528969 33.60590312 -46.515625 32.40625 C-45 31 -45 31 -43.296875 29.90625 C-41.31562282 28.70489525 -41.31562282 28.70489525 -39 26 C-38.78762797 22.54895454 -39.27997356 19.37103288 -40 16 C-39.278125 16.680625 -38.55625 17.36125 -37.8125 18.0625 C-35.19933525 20.28082654 -35.19933525 20.28082654 -32.3125 19.875 C-29.85048935 19.12456118 -29.85048935 19.12456118 -28 17 C-26.68 17 -25.36 17 -24 17 C-23.65775391 16.09701172 -23.65775391 16.09701172 -23.30859375 15.17578125 C-21.62138176 12.37047655 -19.97936456 11.63965495 -17.0625 10.1875 C-11.14141368 7.12513922 -5.57639937 3.64569243 0 0 Z " transform="translate(326,173)" style="fill: #0C0C0C;"/><path d="M0 0 C1.32 0 2.64 0 4 0 C0.5444879 7.00441641 -2.55629645 12.13659906 -9.09375 16.625 C-11.22933705 18.07105513 -11.22933705 18.07105513 -13.5 20.6875 C-18.7333792 25.52837576 -25.10320417 26.38421466 -32 27 C-32 27.66 -32 28.32 -32 29 C-33.68631992 29.62817704 -35.37412451 30.25236893 -37.0625 30.875 C-38.57070313 31.43574219 -38.57070313 31.43574219 -40.109375 32.0078125 C-43 33 -43 33 -46.8125 33.75 C-50.90212308 35.35377376 -52.253897 37.57465429 -54.54296875 41.22265625 C-56.31090353 43.3792523 -57.36762288 43.3615308 -60 44 C-61.33152197 45.60808341 -61.33152197 45.60808341 -62.25 47.5625 C-63.11625 49.2640625 -63.11625 49.2640625 -64 51 C-64.33 51 -64.66 51 -65 51 C-65.46086752 42.81960159 -62.78109844 36.47187606 -58 30 C-54.16334414 27.61520096 -50.40960124 26.81258008 -46 26 C-43.9769677 25.48777443 -41.95606766 24.96704632 -39.9375 24.4375 C-36.98912044 23.716785 -34.0389635 23.00902367 -31.08203125 22.32421875 C-24.94443179 20.80886661 -20.12704977 18.71674382 -15 15 C-15.495 14.01 -15.495 14.01 -16 13 C-15.23816406 12.56300781 -15.23816406 12.56300781 -14.4609375 12.1171875 C-10.78885771 9.93044335 -7.59422774 7.78167049 -4.625 4.6875 C-3.75875 3.800625 -2.8925 2.91375 -2 2 C-1.34 2 -0.68 2 0 2 C0 1.34 0 0.68 0 0 Z " transform="translate(352,262)" style="fill: #8F8F8F;"/><path d="M0 0 C1.1577506 3.47325181 1.06866652 6.36067448 1 10 C1.55429687 9.278125 2.10859375 8.55625 2.6796875 7.8125 C3.40414063 6.884375 4.12859375 5.95625 4.875 5 C5.59429687 4.071875 6.31359375 3.14375 7.0546875 2.1875 C7.69664062 1.465625 8.33859375 0.74375 9 0 C9.66 0 10.32 0 11 0 C9.36012052 9.22432208 3.19740981 16.3500333 -4 22 C-5.01656081 23.65661761 -6.02065076 25.32111559 -7 27 C-7.66 27 -8.32 27 -9 27 C-14.24135483 36.68357933 -15.47112993 47.10585537 -15.82421875 57.89453125 C-16 61 -16 61 -17 62 C-17.07205511 63.68608966 -17.08386068 65.37500659 -17.0625 67.0625 C-17.05347656 67.98160156 -17.04445313 68.90070313 -17.03515625 69.84765625 C-17.02355469 70.55792969 -17.01195312 71.26820313 -17 72 C-19 71 -19 71 -19.59423828 69.23461914 C-22.38883348 53.84416794 -20.95799488 39.70242771 -16 25 C-15.36320312 24.87633057 -14.72640625 24.75266113 -14.0703125 24.62524414 C-11.80978947 24.20356839 -11.80978947 24.20356839 -10.875 21.99609375 C-10.58625 21.15175781 -10.2975 20.30742187 -10 19.4375 C-7.42624773 12.3898424 -4.30226169 6.14608813 0 0 Z " transform="translate(300,216)" style="fill: #8C8C8C;"/><path d="M0 0 C3.2598348 0.58802624 6.20983593 1.42173364 9.3125 2.5625 C14.02891807 4.01152001 18.41915825 4.29855568 23.3125 4.3125 C24.33500854 4.32035522 24.33500854 4.32035522 25.37817383 4.32836914 C29.37722332 4.27279263 32.37160972 3.63342125 36 2 C38.8125 1.875 38.8125 1.875 41 2 C35.91632544 7.46024305 30.70658413 9.60555218 23.6875 11.5625 C22.6056543 11.87477539 22.6056543 11.87477539 21.50195312 12.19335938 C17.94563064 13.21081845 14.37986742 14.16661167 10.7890625 15.0546875 C7.72414562 15.81933687 4.70802916 16.6423707 1.6875 17.5625 C0.86636719 17.81128906 0.04523438 18.06007813 -0.80078125 18.31640625 C-2.54035233 18.8571255 -4.27181125 19.42393708 -6 20 C-6.33 19.34 -6.66 18.68 -7 18 C-7.66 18 -8.32 18 -9 18 C-7.65072455 13.46152802 -5.80840652 9.68067754 -3.375 5.625 C-2.74335938 4.56539063 -2.11171875 3.50578125 -1.4609375 2.4140625 C-0.73777344 1.21910156 -0.73777344 1.21910156 0 0 Z " transform="translate(297,274)" style="fill: #0C0C0C;"/><path d="M0 0 C0.82701416 -0.01305176 1.65402832 -0.02610352 2.50610352 -0.03955078 C4.54713717 -0.04254507 6.58772926 0.06358353 8.625 0.1875 C9.285 0.8475 9.945 1.5075 10.625 2.1875 C10.59765625 4.046875 10.59765625 4.046875 9.625 6.1875 C7.18359375 8.265625 7.18359375 8.265625 4.0625 10.4375 C-6.31714971 17.92498725 -13.67880181 27.09167943 -21.375 37.1875 C-21.973125 37.93 -22.57125 38.6725 -23.1875 39.4375 C-24.76250879 41.75856559 -24.60346621 43.44590545 -24.375 46.1875 C-25.035 46.1875 -25.695 46.1875 -26.375 46.1875 C-27.12109375 44.1015625 -27.12109375 44.1015625 -27.375 41.1875 C-26.16070103 38.77083621 -24.96939841 36.75851446 -23.4375 34.5625 C-23.02508057 33.94930908 -22.61266113 33.33611816 -22.18774414 32.7043457 C-20.93365261 30.85313641 -19.65775626 29.0189293 -18.375 27.1875 C-17.68148437 26.18332031 -16.98796875 25.17914063 -16.2734375 24.14453125 C-12.06777076 18.20465532 -7.6646098 12.21635439 -2.375 7.1875 C-1.715 7.1875 -1.055 7.1875 -0.375 7.1875 C-0.375 6.5275 -0.375 5.8675 -0.375 5.1875 C-1.27331543 5.19273682 -2.17163086 5.19797363 -3.09716797 5.20336914 C-6.42562499 5.22039725 -9.75403581 5.23294337 -13.08251953 5.24243164 C-14.5239332 5.24746474 -15.96534176 5.25429173 -17.40673828 5.26293945 C-19.47690085 5.27504983 -21.54699601 5.28073847 -23.6171875 5.28515625 C-24.8635498 5.29039307 -26.10991211 5.29562988 -27.39404297 5.30102539 C-30.375 5.1875 -30.375 5.1875 -32.375 4.1875 C-32.375 4.8475 -32.375 5.5075 -32.375 6.1875 C-33.365 6.1875 -34.355 6.1875 -35.375 6.1875 C-35.375 5.5275 -35.375 4.8675 -35.375 4.1875 C-36.365 3.8575 -37.355 3.5275 -38.375 3.1875 C-25.64680984 0.70453866 -12.93132115 0.11999522 0 0 Z " transform="translate(226.375,328.8125)" style="fill: #F3F3F3;"/><path d="M0 0 C2.63748022 3.15189079 3.94278255 6.15436789 5.26953125 10.03125 C5.68082275 11.22556641 6.09211426 12.41988281 6.51586914 13.65039062 C6.94855684 14.93343285 7.38075783 16.2166393 7.8125 17.5 C8.25821963 18.80930013 8.70410282 20.1185446 9.15014648 21.42773438 C19.91264152 53.17418713 19.91264152 53.17418713 20.1875 64.3125 C20.7796593 73.64887832 23.78685978 83.18028968 29 91 C29.6328125 93.26171875 29.6328125 93.26171875 30.125 95.6875 C30.29257812 96.49574219 30.46015625 97.30398437 30.6328125 98.13671875 C30.75398438 98.75160156 30.87515625 99.36648437 31 100 C29.35 100 27.7 100 26 100 C25.67 101.32 25.34 102.64 25 104 C22.525 93.11 22.525 93.11 20 82 C19.59007812 83.67449219 19.18015625 85.34898437 18.7578125 87.07421875 C18.21372968 89.27869225 17.66944847 91.48311678 17.125 93.6875 C16.85558594 94.79029297 16.58617187 95.89308594 16.30859375 97.02929688 C16.04433594 98.09599609 15.78007812 99.16269531 15.5078125 100.26171875 C15.26691895 101.24100342 15.02602539 102.22028809 14.77783203 103.22924805 C14.02360472 105.91591652 13.08630475 108.4318116 12 111 C10.98007593 107.84330389 11.04806276 105.90719717 11.9609375 102.734375 C12.29738281 101.52201172 12.29738281 101.52201172 12.640625 100.28515625 C12.88296875 99.44855469 13.1253125 98.61195313 13.375 97.75 C19.00200899 78.05546854 18.19029753 59.45098956 12 40 C11.55143976 38.52533 11.10478726 37.05007821 10.66015625 35.57421875 C8.2442895 27.63025903 5.6381674 19.74709822 2.9296875 11.8984375 C2.56101562 10.81820312 2.19234375 9.73796875 1.8125 8.625 C1.46832031 7.62726563 1.12414062 6.62953125 0.76953125 5.6015625 C0 3 0 3 0 0 Z " transform="translate(394,136)" style="fill: #D6D6D6;"/><path d="M0 0 C1.98 0 3.96 0 6 0 C3.20854719 7.10551624 -4.71714248 10.40627129 -11 14 C-12.12921875 14.65613281 -13.2584375 15.31226563 -14.421875 15.98828125 C-23.29848244 21.01452228 -32.17231711 24.31385277 -42 27 C-42 26.34 -42 25.68 -42 25 C-42.99 24.67 -43.98 24.34 -45 24 C-42.50390663 20.25585995 -39.94409733 19.68117023 -35.875 18.3125 C-25.49120349 14.62208736 -15.46196946 9.98516951 -6.1875 4 C-3 2 -3 2 0 2 C0 1.34 0 0.68 0 0 Z " transform="translate(395,385)" style="fill: #4F4F4F;"/><path d="M0 0 C2.13845555 2.01948134 3.76493759 4.00904064 5.3046875 6.51171875 C5.72363281 7.18783203 6.14257812 7.86394531 6.57421875 8.56054688 C7.00347656 9.26244141 7.43273437 9.96433594 7.875 10.6875 C8.29652344 11.37005859 8.71804688 12.05261719 9.15234375 12.75585938 C10.002443 14.13239624 10.85108184 15.5098361 11.69824219 16.88818359 C13.78230126 20.26911213 15.89093749 23.63463062 18 27 C17.34 27.33 16.68 27.66 16 28 C15.34 27.67 14.68 27.34 14 27 C13.67 27.66 13.34 28.32 13 29 C13 28.01 13 27.02 13 26 C12.31292445 28.49064888 12 30.37886292 12 33 C10.5 34.6875 10.5 34.6875 9 36 C8.505 34.515 8.505 34.515 8 33 C6.515 33.495 6.515 33.495 5 34 C3.9375 31.625 3.9375 31.625 3 29 C3.33 28.34 3.66 27.68 4 27 C3.14779946 24.92889745 3.14779946 24.92889745 1.9375 22.6875 C-0.09479516 18.38708022 -0.09479516 18.38708022 0.75 14.9375 C1.1625 14.298125 1.575 13.65875 2 13 C1.01 12.67 0.02 12.34 -1 12 C-2.25 10.125 -2.25 10.125 -3 8 C-2.67 7.01 -2.34 6.02 -2 5 C-1.67 5.33 -1.34 5.66 -1 6 C-0.67 4.02 -0.34 2.04 0 0 Z M9 29 C9 29.66 9 30.32 9 31 C9.66 30.67 10.32 30.34 11 30 C10.34 29.67 9.68 29.34 9 29 Z " transform="translate(284,125)" style="fill: #5B5B5B;"/><path d="M0 0 C0.66 0.33 1.32 0.66 2 1 C-2.625 5.875 -2.625 5.875 -6 7 C-6 7.99 -6 8.98 -6 10 C-6.66 10 -7.32 10 -8 10 C-8 10.66 -8 11.32 -8 12 C-9.33906885 12.88096635 -10.68233834 13.755849 -12.0390625 14.609375 C-14.46580818 16.33033409 -16.56887211 18.2896243 -18.75 20.3125 C-31.39089925 31.82849268 -31.39089925 31.82849268 -36.79296875 32.18359375 C-37.88544922 32.09271484 -37.88544922 32.09271484 -39 32 C-39.33 30.68 -39.66 29.36 -40 28 C-39.14277344 27.40832031 -38.28554688 26.81664062 -37.40234375 26.20703125 C-36.24738373 25.40887168 -35.09243665 24.61069339 -33.9375 23.8125 C-33.34348389 23.40265869 -32.74946777 22.99281738 -32.13745117 22.57055664 C-28.99754636 20.39988014 -25.88679212 18.20070228 -22.8125 15.9375 C-20 14 -20 14 -18 14 C-18 13.34 -18 12.68 -18 12 C-16.34765625 10.67138672 -16.34765625 10.67138672 -14.0625 9.1796875 C-13.25039063 8.64472656 -12.43828125 8.10976563 -11.6015625 7.55859375 C-10.74304688 7.00300781 -9.88453125 6.44742187 -9 5.875 C-8.14148438 5.31167969 -7.28296875 4.74835938 -6.3984375 4.16796875 C-4.26960002 2.77239751 -2.13673026 1.38344445 0 0 Z " transform="translate(394,342)" style="fill: #505050;"/><path d="M0 0 C0.763125 0.61875 1.52625 1.2375 2.3125 1.875 C4.99625809 4.05597052 4.99625809 4.05597052 8 6 C6.35 6.33 4.7 6.66 3 7 C3 9.31 3 11.62 3 14 C3.66 14 4.32 14 5 14 C3.63020332 17.14634522 2.13362427 19.02235231 -0.4765625 21.234375 C-1.146875 21.80800781 -1.8171875 22.38164062 -2.5078125 22.97265625 C-3.55582031 23.85244141 -3.55582031 23.85244141 -4.625 24.75 C-5.33140625 25.35199219 -6.0378125 25.95398438 -6.765625 26.57421875 C-8.50549235 28.05545717 -10.25031145 29.53038864 -12 31 C-13.32 30.34 -14.64 29.68 -16 29 C-17.32 29.99 -18.64 30.98 -20 32 C-20.66 31.67 -21.32 31.34 -22 31 C-20.71034824 29.62437146 -19.37310707 28.29233607 -18 27 C-17.34 27 -16.68 27 -16 27 C-16 26.34 -16 25.68 -16 25 C-15.01 24.34 -14.02 23.68 -13 23 C-12.42006301 20.80545319 -12.42006301 20.80545319 -12.3125 18.375 C-12.24675781 17.55773437 -12.18101562 16.74046875 -12.11328125 15.8984375 C-12.07589844 15.27195313 -12.03851563 14.64546875 -12 14 C-11.67 14 -11.34 14 -11 14 C-10.67 15.98 -10.34 17.96 -10 20 C-8.83739272 18.80319839 -7.67528969 17.60590312 -6.515625 16.40625 C-5 15 -5 15 -3.296875 13.90625 C-1.31562282 12.70489525 -1.31562282 12.70489525 1 10 C1.21237203 6.54895454 0.72002644 3.37103288 0 0 Z " transform="translate(286,189)" style="fill: #121212;"/><path d="M0 0 C0 1.32 0 2.64 0 4 C-2.1309091 5.63986034 -4.1306968 6.96857986 -6.4375 8.3125 C-7.72727645 9.10087789 -9.01503789 9.89256163 -10.30078125 10.6875 C-10.93322754 11.07679688 -11.56567383 11.46609375 -12.21728516 11.8671875 C-21.58788416 17.58925002 -21.58788416 17.58925002 -27.609375 26.140625 C-27.65578125 26.83671875 -27.7021875 27.5328125 -27.75 28.25 C-27.8325 29.4875 -27.915 30.725 -28 32 C-28.33 32 -28.66 32 -29 32 C-29 29.03 -29 26.06 -29 23 C-29.99 23.99 -30.98 24.98 -32 26 C-32.66 25.67 -33.32 25.34 -34 25 C-28.78125809 16.86490231 -21.68290456 11.65321972 -14 6 C-13.37464355 5.53513184 -12.74928711 5.07026367 -12.10498047 4.59130859 C-7.82127463 1.45532536 -5.38829467 0 0 0 Z " transform="translate(210,304)" style="fill: #EDEDED;"/><path d="M0 0 C2.56488541 1.75052559 2.85202569 2.99179507 3.6472168 5.96411133 C3.90051758 6.88256836 4.15381836 7.80102539 4.41479492 8.74731445 C4.66293945 9.70959961 4.91108398 10.67188477 5.16674805 11.66333008 C5.55636719 13.08935547 5.55636719 13.08935547 5.95385742 14.54418945 C6.65616467 17.14109299 7.34184518 19.73724523 7.97924805 22.35083008 C8.31049683 23.68730591 8.31049683 23.68730591 8.6484375 25.05078125 C8.75760498 25.80979736 8.86677246 26.56881348 8.97924805 27.35083008 C7.54174805 29.16333008 7.54174805 29.16333008 5.97924805 30.35083008 C1.95006598 26.32164801 0.6209658 21.85871737 -1.14575195 16.60083008 C-1.42290039 15.81450195 -1.70004883 15.02817383 -1.9855957 14.21801758 C-3.61468834 9.38691527 -4.33414142 5.44681531 -4.02075195 0.35083008 C-2.02075195 -0.64916992 -2.02075195 -0.64916992 0 0 Z " transform="translate(424.020751953125,235.649169921875)" style="fill: #EFEFEF;"/><path d="M0 0 C2.09782787 2.09782787 2.6509396 3.3799207 3.625 6.125 C3.88539063 6.84945313 4.14578125 7.57390625 4.4140625 8.3203125 C4.70410156 9.15175781 4.70410156 9.15175781 5 10 C5.99 9.67 6.98 9.34 8 9 C7.67 8.01 7.34 7.02 7 6 C7.99 6.33 8.98 6.66 10 7 C11.16796875 9.94921875 11.16796875 9.94921875 12.1875 13.6875 C12.53167969 14.90824219 12.87585938 16.12898438 13.23046875 17.38671875 C13.94211069 20.72818473 14.15145856 23.60001642 14 27 C12.35 27.33 10.7 27.66 9 28 C8.49663233 26.37604003 7.99741024 24.75079459 7.5 23.125 C7.2215625 22.22007812 6.943125 21.31515625 6.65625 20.3828125 C6 18 6 18 6 16 C5.34 16 4.68 16 4 16 C3.13444052 13.90049414 2.28288723 11.7952093 1.4375 9.6875 C0.72400391 7.92986328 0.72400391 7.92986328 -0.00390625 6.13671875 C-1 3 -1 3 0 0 Z " transform="translate(463,347)" style="fill: #E3E3E3;"/><path d="M0 0 C2.63748022 3.15189079 3.94278255 6.15436789 5.26953125 10.03125 C5.68082275 11.22556641 6.09211426 12.41988281 6.51586914 13.65039062 C6.94855684 14.93343285 7.38075783 16.2166393 7.8125 17.5 C8.25821963 18.80930013 8.70410282 20.1185446 9.15014648 21.42773438 C20.12276947 53.79400783 20.12276947 53.79400783 20.1875 64.125 C20.20167969 65.15882813 20.21585937 66.19265625 20.23046875 67.2578125 C20 70 20 70 18 73 C17.98582031 72.20980469 17.97164063 71.41960937 17.95703125 70.60546875 C17.10646537 50.49073506 9.44744009 30.78564757 2.9296875 11.8984375 C2.56101562 10.81820312 2.19234375 9.73796875 1.8125 8.625 C1.46832031 7.62726563 1.12414062 6.62953125 0.76953125 5.6015625 C0 3 0 3 0 0 Z " transform="translate(394,136)" style="fill: #D2D2D2;"/><path d="M0 0 C-1.24251733 3.72755198 -3.20751579 5.27400351 -6 8 C-6.7734375 9.11375 -6.7734375 9.11375 -7.5625 10.25 C-9 12 -9 12 -10.9375 12.3125 C-14.47540515 13.49180172 -15.36502702 16.78844593 -17 20 C-17.33 20 -17.66 20 -18 20 C-18.97970195 12.81551903 -16.06665242 6.8502719 -12 1 C-7.6774825 -1.19917557 -4.62347847 -1.40105408 0 0 Z " transform="translate(305,293)" style="fill: #939393;"/><path d="M0 0 C0.66 0.33 1.32 0.66 2 1 C1.54625 1.721875 1.0925 2.44375 0.625 3.1875 C-1.03113976 5.84868746 -1.03113976 5.84868746 -1.81640625 8.359375 C-3.2557391 11.57055984 -5.12269165 13.53105566 -7.5625 16.0625 C-11.26481532 20.04504879 -14.80282548 24.06927371 -18.125 28.375 C-18.87007812 29.33148438 -19.61515625 30.28796875 -20.3828125 31.2734375 C-22.11352063 34.19139469 -22.37470991 35.67596043 -22 39 C-22.66 39 -23.32 39 -24 39 C-24.74609375 36.9140625 -24.74609375 36.9140625 -25 34 C-23.78570103 31.58333621 -22.59439841 29.57101446 -21.0625 27.375 C-20.65008057 26.76180908 -20.23766113 26.14861816 -19.81274414 25.5168457 C-18.55865261 23.66563641 -17.28275626 21.8314293 -16 20 C-15.30648437 18.99582031 -14.61296875 17.99164063 -13.8984375 16.95703125 C-9.64167951 10.94499655 -5.01043993 5.39688343 0 0 Z " transform="translate(224,336)" style="fill: #E8E8E8;"/><path d="M0 0 C0.144375 0.61875 0.28875 1.2375 0.4375 1.875 C0.98611759 3.94755535 1.46797136 5.46797136 3 7 C3.02885718 8.62499626 2.98679213 10.25137566 2.9140625 11.875 C2.87023437 12.85984375 2.82640625 13.8446875 2.78125 14.859375 C2.7296875 15.89578125 2.678125 16.9321875 2.625 18 C2.58117187 19.03640625 2.53734375 20.0728125 2.4921875 21.140625 C2.12787603 28.87212397 2.12787603 28.87212397 1 30 C0.92794489 31.68608966 0.91613932 33.37500659 0.9375 35.0625 C0.94652344 35.98160156 0.95554687 36.90070313 0.96484375 37.84765625 C0.97644531 38.55792969 0.98804688 39.26820313 1 40 C-1 39 -1 39 -1.59863281 37.25 C-3.74893367 25.1957587 -4.40297932 11.56714905 0 0 Z " transform="translate(282,248)" style="fill: #7C7C7C;"/><path d="M0 0 C2.02014502 2.42417403 3.46795418 4.87176283 4.81640625 7.703125 C6.82547277 11.76735869 9.1431519 15.50296951 11.6875 19.25 C12.12247803 19.89549805 12.55745605 20.54099609 13.00561523 21.20605469 C20.79058856 32.66675549 29.04006879 44.33103307 39 54 C23.94227146 49.12214428 11.9217648 24.95319561 4.15820312 12.03833008 C2.32894047 9.01067998 0.54147844 6.45244576 -2 4 C-2 3.34 -2 2.68 -2 2 C-1.34 2 -0.68 2 0 2 C0 1.34 0 0.68 0 0 Z " transform="translate(285,121)" style="fill: #D7D7D7;"/><path d="M0 0 C0.33 0 0.66 0 1 0 C1.99263561 4.22227564 2.22271785 8.38376081 2.40625 12.69921875 C2.83372205 21.0817568 3.87674323 29.29852645 5.15673828 37.58911133 C5.50669103 39.85583943 5.84598054 42.12398201 6.18359375 44.39257812 C7.27957285 52.2579959 7.27957285 52.2579959 9 60 C9.99 59.505 9.99 59.505 11 59 C10.67 62.63 10.34 66.26 10 70 C9.34 69.67 8.68 69.34 8 69 C7.46923828 67.2512207 7.46923828 67.2512207 7.0703125 64.92578125 C6.91667236 64.04519043 6.76303223 63.16459961 6.60473633 62.25732422 C6.44642334 61.28553223 6.28811035 60.31374023 6.125 59.3125 C5.95572998 58.30461426 5.78645996 57.29672852 5.61206055 56.25830078 C4.20009991 47.65125931 2.97999999 39.01805738 1.8125 30.375 C1.64572754 29.14434814 1.47895508 27.91369629 1.30712891 26.64575195 C-1.5699522 4.7098566 -1.5699522 4.7098566 0 0 Z " transform="translate(394,189)" style="fill: #CBCBCB;"/><path d="M0 0 C0.66 0.33 1.32 0.66 2 1 C2.61462859 3.65554841 3.12391517 6.25261825 3.5625 8.9375 C4.28638791 14.11721697 4.28638791 14.11721697 6 19 C6.08372659 20.52148326 6.10730027 22.04655778 6.09765625 23.5703125 C6.09282227 24.91416016 6.09282227 24.91416016 6.08789062 26.28515625 C6.07951172 27.22230469 6.07113281 28.15945313 6.0625 29.125 C6.05798828 30.06988281 6.05347656 31.01476562 6.04882812 31.98828125 C6.03702357 34.32558387 6.02055759 36.66276061 6 39 C4.0118183 35.27266963 3.21674493 31.63262734 2.5 27.5 C2.37326904 26.79311035 2.24653809 26.0862207 2.1159668 25.35791016 C1.85996206 23.92175438 1.60692656 22.485066 1.35693359 21.04785156 C1.0339038 19.19451781 0.69926969 17.34321586 0.36328125 15.4921875 C-0.50277084 10.59070119 -1.20761418 5.99705847 -1 1 C-0.67 0.67 -0.34 0.34 0 0 Z " transform="translate(326,427)" style="fill: #ECECEC;"/><path d="M0 0 C1.32 0 2.64 0 4 0 C4.52355065 4.7643109 2.97676952 7.04359028 0.25 10.875 C-3.22299206 15.84941051 -3.22299206 15.84941051 -6.3125 21.0625 C-7.71526575 23.50435149 -8.87568231 25.19432996 -11 27 C-11.73828125 24.33984375 -11.73828125 24.33984375 -12 21 C-10.41796875 18.25390625 -10.41796875 18.25390625 -8.1875 15.5625 C-4.83911905 11.2940422 -3.13895785 8.23920611 -2 3 C-1.34 2.67 -0.68 2.34 0 2 C0 1.34 0 0.68 0 0 Z " transform="translate(312,213)" style="fill: #565656;"/><path d="M0 0 C2.26674424 2.26674424 2.53597078 3.40582789 3.2890625 6.46484375 C3.50820313 7.34720703 3.72734375 8.22957031 3.953125 9.13867188 C4.28570312 10.5240918 4.28570312 10.5240918 4.625 11.9375 C4.85445313 12.85724609 5.08390625 13.77699219 5.3203125 14.72460938 C7 21.57833426 7 21.57833426 7 25 C6.01 25.33 5.02 25.66 4 26 C3.34 26.33 2.68 26.66 2 27 C-0.641513 18.08489362 -0.17875809 9.20604186 0 0 Z " transform="translate(376,202)" style="fill: #2D2D2D;"/><path d="M0 0 C0 3 0 3 -1.93359375 5.12109375 C-3.60016321 6.6628655 -5.26682957 8.20453251 -6.93359375 9.74609375 C-9.03866625 12.04217472 -9.34551686 13.08690836 -10 16 C-11.4540625 16.4640625 -11.4540625 16.4640625 -12.9375 16.9375 C-13.948125 17.288125 -14.95875 17.63875 -16 18 C-16.70211894 19.65204456 -17.36971413 21.31923769 -18 23 C-20.25 24.0625 -20.25 24.0625 -23 25 C-24.03125 25.721875 -25.0625 26.44375 -26.125 27.1875 C-27.07375 27.785625 -28.0225 28.38375 -29 29 C-29.99 28.67 -30.98 28.34 -32 28 C-30.60026042 27.12109375 -29.20052083 26.2421875 -27.80078125 25.36328125 C-25.82206331 23.92996163 -25.82206331 23.92996163 -23.63671875 21.63671875 C-20.21944957 18.21944957 -16.49266741 15.29190322 -12.71875 12.28125 C-9.98207296 9.98495777 -7.49141362 7.55818518 -5 5 C-2.5 2.5 -2.5 2.5 0 0 Z " transform="translate(297,207)" style="fill: #1C1C1C;"/><path d="M0 0 C0.33 0 0.66 0 1 0 C0.95875 1.258125 0.9175 2.51625 0.875 3.8125 C0.89219743 9.2382896 1.20966033 14.84855096 3 20 C4.96843324 21.82708716 4.96843324 21.82708716 7 23 C6.566875 24.0209375 6.566875 24.0209375 6.125 25.0625 C4.87402645 28.32893093 3.92552045 31.62846123 3 35 C2.34 35 1.68 35 1 35 C0.67 35.66 0.34 36.32 0 37 C-0.66 34.36 -1.32 31.72 -2 29 C-1.01 29.99 -0.02 30.98 1 32 C0.855625 30.989375 0.71125 29.97875 0.5625 28.9375 C0.376875 27.638125 0.19125 26.33875 0 25 C-0.20625 23.7625 -0.4125 22.525 -0.625 21.25 C-1 18 -1 18 0 15 C-0.350625 14.319375 -0.70125 13.63875 -1.0625 12.9375 C-2.49999136 8.43336039 -1.13470912 4.49519381 0 0 Z " transform="translate(391,147)" style="fill: #5F5F5F;"/><path d="M0 0 C3.98188171 3.51396311 5.09602073 7.97972646 6.8125 12.875 C7.14958984 13.77347656 7.48667969 14.67195312 7.83398438 15.59765625 C10.18988495 22.25713303 10.18988495 22.25713303 9.19921875 26.1328125 C8.60560547 27.05707031 8.60560547 27.05707031 8 28 C7.896875 27.443125 7.79375 26.88625 7.6875 26.3125 C6.85821592 23.5230899 5.65700944 21.3860936 4 19 C3.34 19 2.68 19 2 19 C0.26044666 12.56986533 -0.24991456 6.65050424 0 0 Z " transform="translate(389,128)" style="fill: #5C5C5C;"/><path d="M0 0 C-0.0390625 2.171875 -0.0390625 2.171875 -1 5 C-3.24615399 7.08016701 -5.77999547 8.63897489 -8.375 10.25 C-9.06078125 10.69601562 -9.7465625 11.14203125 -10.453125 11.6015625 C-13.31470777 13.43876544 -15.75482172 14.91827391 -19 16 C-17.4373676 12.16444775 -14.93550032 9.86390275 -12 7 C-10.98758315 5.67607028 -9.98560611 4.34400833 -9 3 C-6.38026618 -0.49297842 -4.22696544 -0.2817977 0 0 Z " transform="translate(241,283)" style="fill: #EFEFEF;"/><path d="M0 0 C4.41196146 3.75016724 6.84746421 8.13906335 7.3125 13.8125 C7 17 7 17 6 19 C5.01 18.67 4.02 18.34 3 18 C2.67 16.35 2.34 14.7 2 13 C1.01 12.67 0.02 12.34 -1 12 C-2.25 10.125 -2.25 10.125 -3 8 C-2.67 7.01 -2.34 6.02 -2 5 C-1.67 5.33 -1.34 5.66 -1 6 C-0.67 4.02 -0.34 2.04 0 0 Z " transform="translate(284,125)" style="fill: #5A5A5A;"/><path d="M0 0 C1.32 0.33 2.64 0.66 4 1 C4 3 4 3 2.53125 4.48046875 C1.8609375 5.04378906 1.190625 5.60710937 0.5 6.1875 C-0.5828125 7.10789062 -0.5828125 7.10789062 -1.6875 8.046875 C-2.8321875 9.01367188 -2.8321875 9.01367188 -4 10 C-5.50251281 11.30962265 -7.00265323 12.62197391 -8.5 13.9375 C-9.66666667 14.95833333 -10.83333333 15.97916667 -12 17 C-12.33 16.01 -12.66 15.02 -13 14 C-15.01508358 13.26676204 -15.01508358 13.26676204 -17 13 C-15.27136297 11.89500435 -13.54206612 10.79104086 -11.8125 9.6875 C-10.36810547 8.76517578 -10.36810547 8.76517578 -8.89453125 7.82421875 C-7.02874485 6.64834527 -5.13089496 5.52120434 -3.19921875 4.45703125 C-0.69967176 3.12602737 -0.69967176 3.12602737 0 0 Z " transform="translate(254,269)" style="fill: #DCDCDC;"/><path d="M0 0 C0.82242187 0.00451172 1.64484375 0.00902344 2.4921875 0.01367188 C4.49482396 0.02531511 6.49742227 0.04324444 8.5 0.0625 C8.5 0.7225 8.5 1.3825 8.5 2.0625 C7.84 2.0625 7.18 2.0625 6.5 2.0625 C6.273125 2.619375 6.04625 3.17625 5.8125 3.75 C3.81914835 7.26209577 1.13880251 10.24309875 -2.5 12.0625 C-1.2508258 8.60324837 0.17527795 5.91556797 2.5 3.0625 C1.18 3.0625 -0.14 3.0625 -1.5 3.0625 C-1.83 3.7225 -2.16 4.3825 -2.5 5.0625 C-2.5 4.4025 -2.5 3.7425 -2.5 3.0625 C-7.45 2.7325 -12.4 2.4025 -17.5 2.0625 C-17.5 1.7325 -17.5 1.4025 -17.5 1.0625 C-11.61599345 0.20554033 -5.94090708 -0.06289234 0 0 Z " transform="translate(353.5,258.9375)" style="fill: #919191;"/><path d="M0 0 C1.1577506 3.47325181 1.06866652 6.36067448 1 10 C1.55429687 9.278125 2.10859375 8.55625 2.6796875 7.8125 C3.40414063 6.884375 4.12859375 5.95625 4.875 5 C5.59429687 4.071875 6.31359375 3.14375 7.0546875 2.1875 C8.01761719 1.1046875 8.01761719 1.1046875 9 0 C9.66 0 10.32 0 11 0 C9.70970987 6.19339263 7.0035833 10.15289443 3 15 C1.046875 14.1640625 1.046875 14.1640625 -1 13 C-1.75 10.375 -1.75 10.375 -2 8 C-2.66 8 -3.32 8 -4 8 C-2.87548273 5.0280615 -1.77706209 2.66559313 0 0 Z " transform="translate(300,216)" style="fill: #909090;"/><path d="M0 0 C-0.47620289 4.37653129 -1.66899889 6.06538005 -5.0625 8.8125 C-5.79597656 9.41707031 -6.52945312 10.02164063 -7.28515625 10.64453125 C-7.85105469 11.09183594 -8.41695313 11.53914062 -9 12 C-9.33 11.34 -9.66 10.68 -10 10 C-10.66 10 -11.32 10 -12 10 C-13.03936519 6.88190442 -13.22859024 5.94861658 -12 3 C-10.29296875 1.953125 -10.29296875 1.953125 -8.1875 1.25 C-7.15689453 0.88648438 -7.15689453 0.88648438 -6.10546875 0.515625 C-4 0 -4 0 0 0 Z " transform="translate(301,193)" style="fill: #0A0A0A;"/><path d="M0 0 C-0.33 0.99 -0.66 1.98 -1 3 C0.65 3 2.3 3 4 3 C4 3.33 4 3.66 4 4 C0.70835171 4.02895225 -2.58326399 4.0467823 -5.875 4.0625 C-6.81214844 4.07087891 -7.74929687 4.07925781 -8.71484375 4.08789062 C-10.05869141 4.09272461 -10.05869141 4.09272461 -11.4296875 4.09765625 C-12.67081299 4.10551147 -12.67081299 4.10551147 -13.93701172 4.11352539 C-16 4 -16 4 -18 3 C-18 3.66 -18 4.32 -18 5 C-18.99 5 -19.98 5 -21 5 C-21 4.34 -21 3.68 -21 3 C-21.99 2.67 -22.98 2.34 -24 2 C-15.91191011 0.39385449 -8.2425317 -0.26305952 0 0 Z " transform="translate(212,330)" style="fill: #CCCCCC;"/><path d="M0 0 C0.66 0.33 1.32 0.66 2 1 C-0.27678571 9.03571429 -0.27678571 9.03571429 -4.6875 11.5 C-5.780625 11.995 -6.87375 12.49 -8 13 C-8.66 12.01 -9.32 11.02 -10 10 C-12.43929746 11.92576115 -14.80090595 13.80090595 -17 16 C-17.66 15.34 -18.32 14.68 -19 14 C-18.04738281 13.32453125 -17.09476562 12.6490625 -16.11328125 11.953125 C-14.8462995 11.0521602 -13.57937548 10.15111423 -12.3125 9.25 C-11.68666016 8.8065625 -11.06082031 8.363125 -10.41601562 7.90625 C-6.85526857 5.37084895 -3.38477246 2.76994764 0 0 Z " transform="translate(321,182)" style="fill: #E2E2E2;"/><path d="M0 0 C1.32 0.33 2.64 0.66 4 1 C4 2.65 4 4.3 4 6 C3.34 6 2.68 6 2 6 C2.33 6.66 2.66 7.32 3 8 C3.04022391 10.3329866 3.04320247 12.66706666 3 15 C-2.58090803 11.67520373 -2.58090803 11.67520373 -4.125 9.1875 C-3.9170801 5.54890181 -1.93281427 3.04564672 0 0 Z " transform="translate(281,117)" style="fill: #ECECEC;"/><path d="M0 0 C0 0.99 0 1.98 0 3 C-0.804375 3.61875 -1.60875 4.2375 -2.4375 4.875 C-5.45207478 7.37489128 -5.35314357 8.30367752 -6 12 C-6.99 12.8971875 -6.99 12.8971875 -8 13.8125 C-10.93791016 17.02583924 -10.71415551 19.7123327 -11 24 C-11.33 24 -11.66 24 -12 24 C-12 21.03 -12 18.06 -12 15 C-12.99 15.99 -13.98 16.98 -15 18 C-15.66 17.67 -16.32 17.34 -17 17 C-12.44407597 9.94504592 -6.6196311 5.08839971 0 0 Z " transform="translate(193,312)" style="fill: #D7D7D7;"/><path d="M0 0 C-0.66 1.32 -1.32 2.64 -2 4 C-1.34 4.66 -0.68 5.32 0 6 C-3.37097383 7.49821059 -5.20442119 8 -9 8 C-9.33 7.34 -9.66 6.68 -10 6 C-13.63 6.33 -17.26 6.66 -21 7 C-17.51582822 3.51582822 -14.56214903 2.86337073 -9.9375 1.8125 C-8.83825195 1.54663086 -8.83825195 1.54663086 -7.71679688 1.27539062 C-2.3542471 0 -2.3542471 0 0 0 Z " transform="translate(314,287)" style="fill: #767676;"/><path d="M0 0 C0.33 0 0.66 0 1 0 C1.33 2.64 1.66 5.28 2 8 C2.66 8 3.32 8 4 8 C4 8.99 4 9.98 4 11 C4.66 11 5.32 11 6 11 C6.0825 10.443125 6.165 9.88625 6.25 9.3125 C7.22610013 6.30285794 8.95188814 4.37845248 11 2 C11.99 2.33 12.98 2.66 14 3 C13.236875 3.70125 12.47375 4.4025 11.6875 5.125 C8.99679913 8.00342419 7.62910276 10.44559399 6 14 C4.4375 16.875 4.4375 16.875 3 19 C2.34 19 1.68 19 1 19 C-0.25433458 15.23699626 -0.10695422 11.72789091 -0.0625 7.8125 C-0.05798828 7.06291016 -0.05347656 6.31332031 -0.04882812 5.54101562 C-0.03706354 3.69397617 -0.01912865 1.84697787 0 0 Z " transform="translate(284,261)" style="fill: #5F5F5F;"/><path d="M0 0 C4.02113441 4.76175425 5.5634953 10.61574359 7.55371094 16.41723633 C8.24827288 18.4324888 8.96324524 20.43970399 9.6796875 22.44726562 C10.12626264 23.73393746 10.57161673 25.02103388 11.015625 26.30859375 C11.62325684 28.05354126 11.62325684 28.05354126 12.24316406 29.83374023 C13.01250637 33.05232102 12.93944478 34.86594457 12 38 C11.67 38 11.34 38 11 38 C10.74605469 37.09378906 10.49210937 36.18757813 10.23046875 35.25390625 C8.00657769 27.38283116 5.59649944 19.6211402 2.92578125 11.890625 C2.55839844 10.81296875 2.19101562 9.7353125 1.8125 8.625 C1.46832031 7.62726563 1.12414062 6.62953125 0.76953125 5.6015625 C0 3 0 3 0 0 Z " transform="translate(394,136)" style="fill: #C4C4C4;"/><path d="M0 0 C0 0.66 0 1.32 0 2 C-2.43015556 3.22553971 -4.86719091 4.43041374 -7.3125 5.625 C-8.00279297 5.975625 -8.69308594 6.32625 -9.40429688 6.6875 C-11.42578125 7.6640625 -11.42578125 7.6640625 -15 9 C-15.99 8.34 -16.98 7.68 -18 7 C-17.360625 6.896875 -16.72125 6.79375 -16.0625 6.6875 C-15.381875 6.460625 -14.70125 6.23375 -14 6 C-13.67 5.01 -13.34 4.02 -13 3 C-9.22665997 -1.67175432 -5.55959074 -1.13718901 0 0 Z " transform="translate(386,396)" style="fill: #555555;"/><path d="M0 0 C0 0.66 0 1.32 0 2 C-0.66 2 -1.32 2 -2 2 C-2 2.66 -2 3.32 -2 4 C-3.98 4.33 -5.96 4.66 -8 5 C-8 5.66 -8 6.32 -8 7 C-10.52053595 8.26026798 -11.8542098 7.91874445 -14.625 7.5625 C-15.85089844 7.40974609 -15.85089844 7.40974609 -17.1015625 7.25390625 C-18.04128906 7.12822266 -18.04128906 7.12822266 -19 7 C-18.360625 6.731875 -17.72125 6.46375 -17.0625 6.1875 C-14.66868314 5.11332248 -14.66868314 5.11332248 -14 2 C-12.22978678 1.663389 -10.45880326 1.33082707 -8.6875 1 C-7.70136719 0.814375 -6.71523438 0.62875 -5.69921875 0.4375 C-3 0 -3 0 0 0 Z " transform="translate(328,284)" style="fill: #969696;"/><path d="M0 0 C2.64 0 5.28 0 8 0 C8 0.66 8 1.32 8 2 C8.66 2.33 9.32 2.66 10 3 C8.10435574 3.79211929 6.20847629 4.58367576 4.3125 5.375 C3.25675781 5.81585938 2.20101563 6.25671875 1.11328125 6.7109375 C-1.58356657 7.82757462 -4.28716264 8.92291801 -7 10 C-5.125 5.25 -5.125 5.25 -4 3 C-3.01 3 -2.02 3 -1 3 C-0.67 2.01 -0.34 1.02 0 0 Z " transform="translate(310,257)" style="fill: #9E9E9E;"/><path d="M0 0 C0.33 1.65 0.66 3.3 1 5 C-2.66291938 7.47785723 -5.6109185 8.48964169 -10 9 C-10 8.34 -10 7.68 -10 7 C-9.34 7 -8.68 7 -8 7 C-8 6.34 -8 5.68 -8 5 C-8.9075 5.350625 -9.815 5.70125 -10.75 6.0625 C-14.00591313 7.00170571 -14.92749994 6.95514676 -18 6 C-17.26394531 5.81824219 -16.52789062 5.63648438 -15.76953125 5.44921875 C-10.89596381 4.19380838 -4.59328465 0 0 0 Z " transform="translate(336,279)" style="fill: #8A8A8A;"/><path d="M0 0 C-4.75522045 4.61935701 -8.40653991 7.76372623 -15 9 C-15 5 -15 5 -13 3 C-12.67 2.34 -12.34 1.68 -12 1 C-10.0390625 0.33203125 -10.0390625 0.33203125 -7.625 -0.1875 C-6.43777344 -0.45626953 -6.43777344 -0.45626953 -5.2265625 -0.73046875 C-3 -1 -3 -1 0 0 Z " transform="translate(351,172)" style="fill: #E3E3E3;"/><path d="M0 0 C0.66 0.33 1.32 0.66 2 1 C-2.625 5.875 -2.625 5.875 -6 7 C-6 7.99 -6 8.98 -6 10 C-6.66 10 -7.32 10 -8 10 C-8 10.66 -8 11.32 -8 12 C-9.32 12.33 -10.64 12.66 -12 13 C-12.33 12.34 -12.66 11.68 -13 11 C-13.99 11 -14.98 11 -16 11 C-14.27278316 9.72651788 -12.54313762 8.45632943 -10.8125 7.1875 C-9.84957031 6.47980469 -8.88664062 5.77210938 -7.89453125 5.04296875 C-5.30857667 3.21779433 -2.80897441 1.46027858 0 0 Z " transform="translate(394,342)" style="fill: #474747;"/><path d="M0 0 C2.00390625 1.19140625 2.00390625 1.19140625 4 3 C4.27734375 5.33984375 4.27734375 5.33984375 3.9375 7.9375 C3.84339844 8.79214844 3.74929688 9.64679688 3.65234375 10.52734375 C2.92816687 13.27227769 1.83266725 14.85940492 0 17 C-1.13130884 13.60607349 -1.1329194 10.94665128 -1.125 7.375 C-1.12886719 5.62316406 -1.12886719 5.62316406 -1.1328125 3.8359375 C-1 1 -1 1 0 0 Z " transform="translate(286,255)" style="fill: #535353;"/><path d="M0 0 C6.88940671 0.43632909 13.35751464 1.08389845 20 3 C20 3.33 20 3.66 20 4 C12.42484727 5.12224485 4.49957186 5.99988583 -3 4 C-2.01 3.34 -1.02 2.68 0 2 C0 1.34 0 0.68 0 0 Z " transform="translate(332,255)" style="fill: #8C8C8C;"/><path d="M0 0 C0.33 0 0.66 0 1 0 C1.99 6.27 2.98 12.54 4 19 C4.66 18.67 5.32 18.34 6 18 C5.67 21.63 5.34 25.26 5 29 C4.34 28.67 3.68 28.34 3 28 C1.95443304 24.32315227 1.44348314 20.51767547 0.8125 16.75 C0.62236328 15.69941406 0.43222656 14.64882812 0.23632812 13.56640625 C0.06166016 12.54933594 -0.11300781 11.53226563 -0.29296875 10.484375 C-0.53309692 9.08783691 -0.53309692 9.08783691 -0.77807617 7.66308594 C-1.0098548 4.88174236 -0.67974709 2.69459186 0 0 Z " transform="translate(399,230)" style="fill: #D1D1D1;"/><path d="M0 0 C0.66 1.32 1.32 2.64 2 4 C-1.3 6.64 -4.6 9.28 -8 12 C-8.33 11.34 -8.66 10.68 -9 10 C-9.66 10 -10.32 10 -11 10 C-9.59026497 6.47566243 -8.39184116 5.55055596 -5 4 C-3.31110128 2.6949419 -1.6396721 1.36639342 0 0 Z " transform="translate(311,191)" style="fill: #EFEFEF;"/><path d="M0 0 C3.62317819 3.41005006 6.57999726 7.00411166 9.5234375 11.01171875 C12.70997325 15.30258302 16.14611654 19.28885296 20 23 C10.42129542 20.01199055 3.99648789 9.22592518 -1 1 C-0.67 0.67 -0.34 0.34 0 0 Z " transform="translate(304,152)" style="fill: #B8B8B8;"/><path d="M0 0 C0.93779297 0.05478516 1.87558594 0.10957031 2.84179688 0.16601562 C3.81826172 0.23884766 4.79472656 0.31167969 5.80078125 0.38671875 C7.28288086 0.47856445 7.28288086 0.47856445 8.79492188 0.57226562 C11.23564244 0.72554759 13.67447214 0.89339029 16.11328125 1.07421875 C16.11328125 2.06421875 16.11328125 3.05421875 16.11328125 4.07421875 C13.05072164 4.10126785 9.98840265 4.12108173 6.92578125 4.13671875 C5.62930664 4.14928711 5.62930664 4.14928711 4.30664062 4.16210938 C0.11041356 4.17818687 -3.79608761 4.14980913 -7.88671875 3.07421875 C-5.41089364 -0.02499008 -3.89160428 -0.25944029 0 0 Z " transform="translate(263.88671875,377.92578125)" style="fill: #2D2D2D;"/><path d="M0 0 C0.71484375 1.765625 0.71484375 1.765625 1 4 C-0.43359375 5.921875 -0.43359375 5.921875 -2.4375 7.75 C-3.09621094 8.36359375 -3.75492187 8.9771875 -4.43359375 9.609375 C-4.95050781 10.06828125 -5.46742188 10.5271875 -6 11 C-6.99 10.67 -7.98 10.34 -9 10 C-8.49396008 7.83125748 -8.00016187 6.00032373 -7 4 C-6.34 4 -5.68 4 -5 4 C-5 3.34 -5 2.68 -5 2 C-3.35 1.34 -1.7 0.68 0 0 Z " transform="translate(381,352)" style="fill: #555555;"/><path d="M0 0 C0.66 1.98 1.32 3.96 2 6 C-3.28 5.34 -8.56 4.68 -14 4 C-10.07627117 0.07627117 -5.34401044 -0.25447669 0 0 Z " transform="translate(348,252)" style="fill: #5C5C5C;"/><path d="M0 0 C0.36504603 1.58086048 0.71660506 3.16483907 1.0625 4.75 C1.25972656 5.63171875 1.45695312 6.5134375 1.66015625 7.421875 C1.99825872 9.98679028 1.81158635 11.57091639 1 14 C0.71125 13.05125 0.4225 12.1025 0.125 11.125 C-0.76825109 7.94788422 -0.76825109 7.94788422 -3 6 C-3 5.01 -3 4.02 -3 3 C-4.32 3.99 -5.64 4.98 -7 6 C-7 5.34 -7 4.68 -7 4 C-8.32 4.33 -9.64 4.66 -11 5 C-9.04754573 1.09509146 -4.11653518 0 0 0 Z " transform="translate(317,386)" style="fill: #323232;"/><path d="M0 0 C-2 2 -2 2 -4.3125 2.8125 C-7.63452974 4.28037361 -9.55859494 6.34933165 -12 9 C-13.125 2.25 -13.125 2.25 -12 0 C-7.8265198 -1.35024359 -4.26066408 -0.7518819 0 0 Z " transform="translate(304,306)" style="fill: #505050;"/><path d="M0 0 C0.33 0 0.66 0 1 0 C1 1.98 1 3.96 1 6 C2.65 6 4.3 6 6 6 C3.25 12.875 3.25 12.875 1 14 C0.01 14.556875 0.01 14.556875 -1 15.125 C-1.66 15.41375 -2.32 15.7025 -3 16 C-3.66 15.67 -4.32 15.34 -5 15 C-3.71034824 13.62437146 -2.37310707 12.29233607 -1 11 C-0.34 11 0.32 11 1 11 C1 10.34 1 9.68 1 9 C0.34 9 -0.32 9 -1 9 C-0.67 6.03 -0.34 3.06 0 0 Z " transform="translate(257,261)" style="fill: #1C1C1C;"/><path d="M0 0 C0.66 0.33 1.32 0.66 2 1 C-0.94278505 4.03474709 -3.97431256 6.93065792 -7.125 9.75 C-7.78757812 10.34296875 -8.45015625 10.9359375 -9.1328125 11.546875 C-11 13 -11 13 -14 14 C-14.66 13.34 -15.32 12.68 -16 12 C-15.5153125 11.72027344 -15.030625 11.44054687 -14.53125 11.15234375 C-9.16988507 7.94583511 -4.585666 4.23198431 0 0 Z " transform="translate(352,263)" style="fill: #5C5C5C;"/><path d="M0 0 C0.66 0.33 1.32 0.66 2 1 C2.47597366 3.70599842 2.84093629 6.33595404 3.125 9.0625 C3.21136719 9.82111328 3.29773438 10.57972656 3.38671875 11.36132812 C3.59939517 13.23996986 3.80075459 15.11988636 4 17 C2.515 17.99 2.515 17.99 1 19 C0.6603981 17.12612523 0.32861309 15.25083303 0 13.375 C-0.2784375 11.80878906 -0.2784375 11.80878906 -0.5625 10.2109375 C-0.98879664 7.08222467 -1.14792921 4.1527413 -1 1 C-0.67 0.67 -0.34 0.34 0 0 Z " transform="translate(326,427)" style="fill: #E0E0E0;"/><path d="M0 0 C1.98 0.495 1.98 0.495 4 1 C4.25 8.625 4.25 8.625 2 12 C1.01 12 0.02 12 -1 12 C-0.67 8.04 -0.34 4.08 0 0 Z " transform="translate(283,244)" style="fill: #909090;"/><path d="M0 0 C0.66 0.33 1.32 0.66 2 1 C1.67 1.66 1.34 2.32 1 3 C1.66 3 2.32 3 3 3 C3 3.66 3 4.32 3 5 C0.8125 6.5078125 0.8125 6.5078125 -2 8.125 C-2.928125 8.66382813 -3.85625 9.20265625 -4.8125 9.7578125 C-5.534375 10.16773438 -6.25625 10.57765625 -7 11 C-7 9.68 -7 8.36 -7 7 C-4.625 4.9375 -4.625 4.9375 -2 3 C-1.34 2.01 -0.68 1.02 0 0 Z " transform="translate(195,311)" style="fill: #F4F4F4;"/><path d="M0 0 C0.33 0.99 0.66 1.98 1 3 C2.65 3.33 4.3 3.66 6 4 C3.90217213 6.09782787 2.6200793 6.6509396 -0.125 7.625 C-0.84945313 7.88539063 -1.57390625 8.14578125 -2.3203125 8.4140625 C-3.15175781 8.70410156 -3.15175781 8.70410156 -4 9 C-4 8.01 -4 7.02 -4 6 C-4.66 5.34 -5.32 4.68 -6 4 C-4.02 2.68 -2.04 1.36 0 0 Z " transform="translate(326,173)" style="fill: #151515;"/><path d="M0 0 C0.33 0 0.66 0 1 0 C0.95875 1.2375 0.9175 2.475 0.875 3.75 C0.85128874 8.7372674 1.684271 13.42135498 2.66015625 18.30078125 C2.98977856 20.91881591 2.8396903 22.52790478 2 25 C0.41332145 20.66307863 -0.41774416 16.57486732 -1 12 C-1.226875 11.175 -1.45375 10.35 -1.6875 9.5 C-2.12369011 6.01047911 -1.09922191 3.29766573 0 0 Z " transform="translate(391,147)" style="fill: #AAAAAA;"/><path d="M0 0 C0.99 0 1.98 0 3 0 C1.26055691 3.79131043 -1.10582781 6.71107988 -3.7578125 9.90234375 C-5.26196347 12.44237227 -5.2322489 14.09688879 -5 17 C-5.66 17 -6.32 17 -7 17 C-7.734375 14.89453125 -7.734375 14.89453125 -8 12 C-6.453125 8.88671875 -6.453125 8.88671875 -4.25 5.6875 C-3.53328125 4.61886719 -2.8165625 3.55023438 -2.078125 2.44921875 C-1.04945313 1.23685547 -1.04945313 1.23685547 0 0 Z " transform="translate(207,358)" style="fill: #B1B1B1;"/><path d="M0 0 C0.99 0.33 1.98 0.66 3 1 C1 4 1 4 -1.125 4.6875 C-1.74375 4.790625 -2.3625 4.89375 -3 5 C-2.34 5.66 -1.68 6.32 -1 7 C-3.64 7.33 -6.28 7.66 -9 8 C-8.34 5.69 -7.68 3.38 -7 1 C-6.34 1 -5.68 1 -5 1 C-4.67 1.66 -4.34 2.32 -4 3 C-3.401875 2.484375 -2.80375 1.96875 -2.1875 1.4375 C-1.465625 0.963125 -0.74375 0.48875 0 0 Z " transform="translate(332,245)" style="fill: #616161;"/><path d="M0 0 C2.66666667 0 5.33333333 0 8 0 C8 0.99 8 1.98 8 3 C7.34 3 6.68 3 6 3 C5.71125 3.598125 5.4225 4.19625 5.125 4.8125 C4 7 4 7 2 10 C1.87625 9.195625 1.7525 8.39125 1.625 7.5625 C1.315625 6.2940625 1.315625 6.2940625 1 5 C0.34 4.67 -0.32 4.34 -1 4 C-0.67 2.68 -0.34 1.36 0 0 Z " transform="translate(285,240)" style="fill: #838383;"/><path d="M0 0 C0.66 0.66 1.32 1.32 2 2 C1.01 3.65 0.02 5.3 -1 7 C-0.34 7.33 0.32 7.66 1 8 C0.01 9.485 0.01 9.485 -1 11 C-2.65 10.67 -4.3 10.34 -6 10 C-5.6875 8.125 -5.6875 8.125 -5 6 C-4.01 5.34 -3.02 4.68 -2 4 C-0.80767387 1.94996045 -0.80767387 1.94996045 0 0 Z " transform="translate(351,271)" style="fill: #525252;"/><path d="M0 0 C0.66 0.33 1.32 0.66 2 1 C-2.74576271 8.45762712 -2.74576271 8.45762712 -6 11 C-8.25 10.75 -8.25 10.75 -10 10 C-9.34 10 -8.68 10 -8 10 C-7.773125 9.443125 -7.54625 8.88625 -7.3125 8.3125 C-5.63848923 5.36305245 -3.45043651 3.3247731 -1 1 C-0.67 0.67 -0.34 0.34 0 0 Z " transform="translate(305,252)" style="fill: #4F4F4F;"/><path d="M0 0 C0.763125 0.61875 1.52625 1.2375 2.3125 1.875 C4.99625809 4.05597052 4.99625809 4.05597052 8 6 C6.35 6.33 4.7 6.66 3 7 C3 9.31 3 11.62 3 14 C1.68 13.34 0.36 12.68 -1 12 C-0.649375 11.505 -0.29875 11.01 0.0625 10.5 C1.46011601 6.77302397 0.65032859 3.90197152 0 0 Z " transform="translate(286,189)" style="fill: #2D2D2D;"/><path d="M0 0 C1.32 0 2.64 0 4 0 C2.63051988 2.82138266 1.14363329 5.5165959 -0.5 8.1875 C-1.13421875 9.22970703 -1.13421875 9.22970703 -1.78125 10.29296875 C-3 12 -3 12 -5 13 C-5 12.34 -5 11.68 -5 11 C-5.66 10.67 -6.32 10.34 -7 10 C-5.50260417 8.79557292 -4.00520833 7.59114583 -2.5078125 6.38671875 C-0.74707893 4.87729455 -0.74707893 4.87729455 1 2 C0.67 1.34 0.34 0.68 0 0 Z " transform="translate(352,262)" style="fill: #898989;"/><path d="M0 0 C1.32 0 2.64 0 4 0 C4.25 2.25 4.25 2.25 4 5 C2 7.3125 2 7.3125 0 9 C-0.66 6.69 -1.32 4.38 -2 2 C-1.34 2 -0.68 2 0 2 C0 1.34 0 0.68 0 0 Z " transform="translate(312,213)" style="fill: #4C4C4C;"/><path d="M0 0 C0.33 0 0.66 0 1 0 C2.03627084 3.46369979 2.57508339 6.40700111 2 10 C-0.92283155 13.30866646 -4.27601715 15.65696685 -8 18 C-8.66 17.67 -9.32 17.34 -10 17 C-8.71034824 15.62437146 -7.37310707 14.29233607 -6 13 C-5.34 13 -4.68 13 -4 13 C-4 12.34 -4 11.68 -4 11 C-3.01 10.34 -2.02 9.68 -1 9 C-0.42006301 6.80545319 -0.42006301 6.80545319 -0.3125 4.375 C-0.24675781 3.55773437 -0.18101562 2.74046875 -0.11328125 1.8984375 C-0.07589844 1.27195313 -0.03851563 0.64546875 0 0 Z " transform="translate(274,203)" style="fill: #343434;"/><path d="M0 0 C2.625 0.375 2.625 0.375 5 1 C5 1.99 5 2.98 5 4 C0.77777778 7 0.77777778 7 -2 7 C-2.125 4.625 -2.125 4.625 -2 2 C-1.34 1.34 -0.68 0.68 0 0 Z " transform="translate(323,182)" style="fill: #F6F6F6;"/><path d="M0 0 C0.66 0.33 1.32 0.66 2 1 C1.01 2.32 0.02 3.64 -1 5 C-0.34 5.33 0.32 5.66 1 6 C-0.375 7.5 -0.375 7.5 -2 9 C-2.66 9 -3.32 9 -4 9 C-4 8.01 -4 7.02 -4 6 C-4.66 6 -5.32 6 -6 6 C-6 5.34 -6 4.68 -6 4 C-4.03852126 2.61061923 -2.03833424 1.2739589 0 0 Z " transform="translate(214,298)" style="fill: #E3E3E3;"/><path d="M0 0 C2 1 2 1 2.8515625 3.07421875 C4.25894737 7.82947369 5.3961821 11.98169339 5 17 C2.71636622 14.71636622 2.2847151 13.25204532 1.375 10.1875 C1.11460937 9.33542969 0.85421875 8.48335937 0.5859375 7.60546875 C-0.0044509 4.98020834 -0.10588413 2.68079363 0 0 Z " transform="translate(406,171)" style="fill: #DFDFDF;"/><path d="M0 0 C0.99 0.33 1.98 0.66 3 1 C2.01 3.31 1.02 5.62 0 8 C-1.32 7.67 -2.64 7.34 -4 7 C-3.6875 4.625 -3.6875 4.625 -3 2 C-2.01 1.34 -1.02 0.68 0 0 Z " transform="translate(200,307)" style="fill: #E6E6E6;"/><path d="M0 0 C-2.77280706 3.08089673 -5.06326356 4.68775452 -9 6 C-9.33 4.68 -9.66 3.36 -10 2 C-6.49223216 0.39644899 -3.85645121 -0.22036864 0 0 Z " transform="translate(338,276)" style="fill: #202020;"/><path d="M0 0 C0.66 0.66 1.32 1.32 2 2 C1.01 3.32 0.02 4.64 -1 6 C-0.34 6 0.32 6 1 6 C0.1875 7.9375 0.1875 7.9375 -1 10 C-1.99 10.33 -2.98 10.66 -4 11 C-3.67 9.68 -3.34 8.36 -3 7 C-3.66 6.67 -4.32 6.34 -5 6 C-3.625 4 -3.625 4 -2 2 C-1.34 2 -0.68 2 0 2 C0 1.34 0 0.68 0 0 Z " transform="translate(362,259)" style="fill: #5E5E5E;"/><path d="M0 0 C3.62174279 3.62174279 4.87956218 9.03284894 5.1875 14.0625 C5.125625 14.701875 5.06375 15.34125 5 16 C3.21983645 13.32975467 2.02836981 10.94969139 0.8125 8 C0.44769531 7.13375 0.08289063 6.2675 -0.29296875 5.375 C-1 3 -1 3 0 0 Z " transform="translate(463,347)" style="fill: #848484;"/><path d="M0 0 C0.99 0.495 0.99 0.495 2 1 C2 1.66 2 2.32 2 3 C3.65 2.67 5.3 2.34 7 2 C7.33 3.32 7.66 4.64 8 6 C6.35 6 4.7 6 3 6 C2.67 7.32 2.34 8.64 2 10 C1.34 6.7 0.68 3.4 0 0 Z " transform="translate(417,230)" style="fill: #D8D8D8;"/><path d="M0 0 C2.375 1 2.375 1 3.6875 3.0625 C4.0278125 4.0215625 4.0278125 4.0215625 4.375 5 C2.395 5.99 2.395 5.99 0.375 7 C0.045 6.34 -0.285 5.68 -0.625 5 C-0.295 4.34 0.035 3.68 0.375 3 C-1.935 3.33 -4.245 3.66 -6.625 4 C-3.35227273 0 -3.35227273 0 0 0 Z " transform="translate(300.625,190)" style="fill: #1F1F1F;"/><path d="M0 0 C1.98 0 3.96 0 6 0 C4.60667426 3.36720387 3.0210714 4.9859524 0 7 C-0.33 6.01 -0.66 5.02 -1 4 C-1.66 3.34 -2.32 2.68 -3 2 C-2.01 2 -1.02 2 0 2 C0 1.34 0 0.68 0 0 Z " transform="translate(395,385)" style="fill: #414141;"/><path d="M0 0 C2 1 2 1 2.8515625 3.28515625 C3.10679687 4.20167969 3.36203125 5.11820312 3.625 6.0625 C3.88539063 6.98160156 4.14578125 7.90070313 4.4140625 8.84765625 C4.60742188 9.55792969 4.80078125 10.26820313 5 11 C4.01 11.33 3.02 11.66 2 12 C1.47026689 10.37787941 0.95146893 8.75218416 0.4375 7.125 C0.14746094 6.22007812 -0.14257812 5.31515625 -0.44140625 4.3828125 C-1 2 -1 2 0 0 Z " transform="translate(178,348)" style="fill: #2B2B2B;"/><path d="M0 0 C0.78375 0.185625 1.5675 0.37125 2.375 0.5625 C4.97089775 1.25962266 4.97089775 1.25962266 7 0 C7.66 0.66 8.32 1.32 9 2 C3.7265625 5.22265625 3.7265625 5.22265625 2 6 C1.34 5.67 0.68 5.34 0 5 C0.33 4.34 0.66 3.68 1 3 C0.34 2.67 -0.32 2.34 -1 2 C-0.67 1.34 -0.34 0.68 0 0 Z " transform="translate(306,253)" style="fill: #5D5D5D;"/><path d="M0 0 C0.96070434 2.88211302 1.10581883 4.69850044 1.0625 7.6875 C1.05347656 8.49574219 1.04445313 9.30398437 1.03515625 10.13671875 C1.02355469 10.75160156 1.01195312 11.36648437 1 12 C0.01 12.495 0.01 12.495 -1 13 C-1.33 11.35 -1.66 9.7 -2 8 C-2.66 8 -3.32 8 -4 8 C-2.87548273 5.0280615 -1.77706209 2.66559313 0 0 Z " transform="translate(300,216)" style="fill: #646464;"/><path d="M0 0 C0.66 0.33 1.32 0.66 2 1 C2.05422947 2.4370809 2.09289723 3.87475462 2.125 5.3125 C2.14820313 6.11300781 2.17140625 6.91351563 2.1953125 7.73828125 C2 10 2 10 0 13 C-1.5625 10.6875 -1.5625 10.6875 -3 8 C-2.67 7.01 -2.34 6.02 -2 5 C-1.67 5.33 -1.34 5.66 -1 6 C-0.67 4.02 -0.34 2.04 0 0 Z " transform="translate(284,125)" style="fill: #838383;"/><path d="M0 0 C0.99 0 1.98 0 3 0 C3 0.66 3 1.32 3 2 C4.98 1.67 6.96 1.34 9 1 C9 4 9 4 7.5 5.6875 C7.005 6.120625 6.51 6.55375 6 7 C5.67 6.01 5.34 5.02 5 4 C4.01 4.33 3.02 4.66 2 5 C1.34 3.35 0.68 1.7 0 0 Z " transform="translate(287,154)" style="fill: #6C6C6C;"/><path d="M0 0 C0.66 0.33 1.32 0.66 2 1 C-0.82223849 5.87477558 -2.67751919 8.03908602 -8 10 C-5.61820737 6.25718301 -3.25524265 3.02272532 0 0 Z " transform="translate(224,336)" style="fill: #D2D2D2;"/><path d="M0 0 C0.66 0.33 1.32 0.66 2 1 C2 2.65 2 4.3 2 6 C1.34 6 0.68 6 0 6 C-0.33 6.99 -0.66 7.98 -1 9 C-1.99 8.34 -2.98 7.68 -4 7 C-1.125 1.125 -1.125 1.125 0 0 Z " transform="translate(294,242)" style="fill: #535353;"/><path d="M0 0 C0.598125 0.20625 1.19625 0.4125 1.8125 0.625 C1.4825 1.285 1.1525 1.945 0.8125 2.625 C2.1325 2.955 3.4525 3.285 4.8125 3.625 C3.0625 4.75 3.0625 4.75 0.8125 5.625 C-1.85725522 4.68273345 -3.17365798 3.63884202 -5.1875 1.625 C-2.1875 -0.375 -2.1875 -0.375 0 0 Z " transform="translate(328.1875,179.375)" style="fill: #DADADA;"/><path d="M0 0 C3.63559661 3.43361902 6.36113346 6.7973607 9 11 C8.67 11.66 8.34 12.32 8 13 C6.6578508 11.40320196 5.32652885 9.79729803 4 8.1875 C2.88625 6.84751953 2.88625 6.84751953 1.75 5.48046875 C0 3 0 3 0 0 Z " transform="translate(295,140)" style="fill: #DFDFDF;"/><path d="M0 0 C0.99 0 1.98 0 3 0 C4.625 3.25 4.625 3.25 6 7 C5.0859375 9.234375 5.0859375 9.234375 4 11 C3.32880451 9.5437455 2.66318193 8.08492133 2 6.625 C1.62875 5.81289062 1.2575 5.00078125 0.875 4.1640625 C0 2 0 2 0 0 Z " transform="translate(284,141)" style="fill: #717171;"/><path d="M0 0 C0.33 0 0.66 0 1 0 C1 6.6 1 13.2 1 20 C-0.80330533 16.39338934 -1.46599103 13.91606575 -2 10 C-1.34 10 -0.68 10 0 10 C0 6.7 0 3.4 0 0 Z " transform="translate(331,446)" style="fill: #B3B3B3;"/><path d="M0 0 C0.66 0.33 1.32 0.66 2 1 C-3.30311615 6.74504249 -3.30311615 6.74504249 -7 7 C-7.66 6.67 -8.32 6.34 -9 6 C-6.03 4.02 -3.06 2.04 0 0 Z " transform="translate(394,342)" style="fill: #404040;"/><path d="M0 0 C1.32 0.33 2.64 0.66 4 1 C4 1.66 4 2.32 4 3 C-1.14209827 7.09030544 -1.14209827 7.09030544 -4.375 6.75 C-4.91125 6.5025 -5.4475 6.255 -6 6 C-5.195625 5.566875 -4.39125 5.13375 -3.5625 4.6875 C-0.72153646 3.19525998 -0.72153646 3.19525998 0 0 Z " transform="translate(254,269)" style="fill: #C4C4C4;"/><path d="M0 0 C1.51953125 1.08203125 1.51953125 1.08203125 3 3 C3.07421875 6.13671875 3.07421875 6.13671875 2.6875 9.6875 C2.50767578 11.45673828 2.50767578 11.45673828 2.32421875 13.26171875 C2.21722656 14.16535156 2.11023438 15.06898438 2 16 C-0.42130331 12.36804504 -0.21022785 10.61650652 -0.125 6.3125 C-0.09792969 4.54326172 -0.09792969 4.54326172 -0.0703125 2.73828125 C-0.04710937 1.83464844 -0.02390625 0.93101562 0 0 Z " transform="translate(389,128)" style="fill: #747474;"/><path d="M0 0 C0.33 0.66 0.66 1.32 1 2 C0.0625 4.625 0.0625 4.625 -1 7 C-1.598125 6.835 -2.19625 6.67 -2.8125 6.5 C-5.11344336 5.8885876 -5.11344336 5.8885876 -8 6 C-5.36 4.02 -2.72 2.04 0 0 Z " transform="translate(236,334)" style="fill: #3F3F3F;"/><path d="M0 0 C0.33 1.65 0.66 3.3 1 5 C0.01 5.33 -0.98 5.66 -2 6 C-2.99 5.34 -3.98 4.68 -5 4 C-5.66 3.67 -6.32 3.34 -7 3 C-2.25 0 -2.25 0 0 0 Z " transform="translate(336,279)" style="fill: #818181;"/><path d="M0 0 C1.35015859 4.05047576 0.62084998 6.7920168 0 11 C-0.66 10.67 -1.32 10.34 -2 10 C-2.8125 6.625 -2.8125 6.625 -3 3 C-1.5625 1.0625 -1.5625 1.0625 0 0 Z " transform="translate(404,248)" style="fill: #B5B5B5;"/><path d="M0 0 C2.45823172 3.68734758 3.01242616 6.69699971 4 11 C2.35 11 0.7 11 -1 11 C-0.67 10.01 -0.34 9.02 0 8 C-0.165 7.360625 -0.33 6.72125 -0.5 6.0625 C-1.07702481 3.68227266 -0.74022853 2.30293321 0 0 Z " transform="translate(380,216)" style="fill: #1E1E1E;"/><path d="M0 0 C0.33 1.98 0.66 3.96 1 6 C0.34 6 -0.32 6 -1 6 C-1.33 6.66 -1.66 7.32 -2 8 C-2.66 5.69 -3.32 3.38 -4 1 C-2 0 -2 0 0 0 Z " transform="translate(422,216)" style="fill: #1D1D1D;"/><path d="M0 0 C2.16874252 0.50603992 3.99967627 0.99983813 6 2 C6.625 4.0625 6.625 4.0625 7 6 C6.34 6 5.68 6 5 6 C4.67 7.32 4.34 8.64 4 10 C3.79503906 9.44570312 3.59007812 8.89140625 3.37890625 8.3203125 C3.10949219 7.59585938 2.84007812 6.87140625 2.5625 6.125 C2.29566406 5.40570313 2.02882813 4.68640625 1.75390625 3.9453125 C1.02083146 1.96351155 1.02083146 1.96351155 0 0 Z " transform="translate(296,179)" style="fill: #686868;"/><path d="M0 0 C0.99 0.33 1.98 0.66 3 1 C3.33 3.31 3.66 5.62 4 8 C3.01 8 2.02 8 1 8 C-1 5 -1 5 -0.625 2.3125 C-0.41875 1.549375 -0.2125 0.78625 0 0 Z " transform="translate(388,158)" style="fill: #EEEEEE;"/><path d="M0 0 C0.66 0.33 1.32 0.66 2 1 C1.814375 1.61875 1.62875 2.2375 1.4375 2.875 C0.76313824 5.04160178 0.76313824 5.04160178 2 7 C1.01 7.33 0.02 7.66 -1 8 C-1 7.34 -1 6.68 -1 6 C-2.32 5.34 -3.64 4.68 -5 4 C-3.35 2.68 -1.7 1.36 0 0 Z " transform="translate(372,357)" style="fill: #4A4A4A;"/><path d="M0 0 C2.05078125 0.03255208 4.1015625 0.06510417 6.15234375 0.09765625 C4.15234375 1.43098958 2.15234375 2.76432292 0.15234375 4.09765625 C-0.86634287 5.07861373 -1.87117608 6.07467703 -2.84765625 7.09765625 C-2.89019981 5.09810879 -2.88846408 3.09723989 -2.84765625 1.09765625 C-1.84765625 0.09765625 -1.84765625 0.09765625 0 0 Z " transform="translate(184.84765625,330.90234375)" style="fill: #2E2E2E;"/><path d="M0 0 C0.66 0.66 1.32 1.32 2 2 C1.50628906 2.40992188 1.01257813 2.81984375 0.50390625 3.2421875 C-0.13675781 3.78101563 -0.77742187 4.31984375 -1.4375 4.875 C-2.07558594 5.40867187 -2.71367187 5.94234375 -3.37109375 6.4921875 C-5.10805004 7.9222757 -5.10805004 7.9222757 -6 10 C-6.66 9.67 -7.32 9.34 -8 9 C-7.04663979 7.68388323 -6.08714226 6.37221039 -5.125 5.0625 C-4.59132812 4.33160156 -4.05765625 3.60070312 -3.5078125 2.84765625 C-2 1 -2 1 0 0 Z " transform="translate(184,320)" style="fill: #CDCDCD;"/><path d="M0 0 C0.66 0.33 1.32 0.66 2 1 C1.01 1.78375 0.02 2.5675 -1 3.375 C-2.485 4.674375 -2.485 4.674375 -4 6 C-4 6.66 -4 7.32 -4 8 C-5.98 8 -7.96 8 -10 8 C-6.97727468 4.74475735 -3.74281699 2.38179263 0 0 Z " transform="translate(226,296)" style="fill: #363636;"/><path d="M0 0 C0.33 0.99 0.66 1.98 1 3 C-3.95 2.67 -8.9 2.34 -14 2 C-14 1.67 -14 1.34 -14 1 C-9.27616037 0.34843591 -4.78025483 -0.11950637 0 0 Z " transform="translate(350,259)" style="fill: #AAAAAA;"/><path d="M0 0 C2 2 2 2 2.375 4.8125 C1.92199358 8.66305455 0.6183364 10.21801758 -2 13 C-1.39174965 8.65535464 -0.73832608 4.32448133 0 0 Z " transform="translate(413,216)" style="fill: #212121;"/><path d="M0 0 C0.33 0.66 0.66 1.32 1 2 C0.34938905 3.67299959 -0.32033324 5.33859237 -1 7 C-1.37593066 8.9924325 -1.71979545 10.9918674 -2 13 C-2.33 13 -2.66 13 -3 13 C-3.144375 12.05125 -3.28875 11.1025 -3.4375 10.125 C-3.82935399 7.1065506 -3.82935399 7.1065506 -5 5 C-4.34 4.34 -3.68 3.68 -3 3 C-2.34 3.33 -1.68 3.66 -1 4 C-0.67 2.68 -0.34 1.36 0 0 Z " transform="translate(350,197)" style="fill: #434343;"/><path d="M0 0 C0.66 0.33 1.32 0.66 2 1 C1.67 1.66 1.34 2.32 1 3 C3.97 3.33 6.94 3.66 10 4 C10 4.33 10 4.66 10 5 C3.565 5.495 3.565 5.495 -3 6 C-2 4 -1 2 0 0 Z " transform="translate(334,239)" style="fill: #202020;"/><path d="M0 0 C0.66 1.32 1.32 2.64 2 4 C-1.75 6 -1.75 6 -4 6 C-4.99 6.495 -4.99 6.495 -6 7 C-4.60667426 3.63279613 -3.0210714 2.0140476 0 0 Z " transform="translate(311,191)" style="fill: #F7F7F7;"/><path d="M0 0 C3.33333333 3.33333333 6.66666667 6.66666667 10 10 C4.70841026 8.59928507 2.22521956 5.14512755 -1 1 C-0.67 0.67 -0.34 0.34 0 0 Z " transform="translate(314,165)" style="fill: #8B8B8B;"/><path d="M0 0 C4.38227147 8.13850416 4.38227147 8.13850416 3.55078125 12.1875 C3.36902344 12.785625 3.18726563 13.38375 3 14 C-1.07877462 7.10284464 -1.07877462 7.10284464 -0.75 2.5 C-0.5025 1.675 -0.255 0.85 0 0 Z " transform="translate(390,122)" style="fill: #C8C8C8;"/><path d="M0 0 C5.53846154 0.61538462 5.53846154 0.61538462 7.875 2.5625 C8.431875 3.2740625 8.431875 3.2740625 9 4 C5.625 4.625 5.625 4.625 2 5 C0 3 0 3 0 0 Z " transform="translate(351,427)" style="fill: #4E4E4E;"/><path d="M0 0 C1.32 1.32 2.64 2.64 4 4 C3.01 4.99 2.02 5.98 1 7 C-0.32 5.35 -1.64 3.7 -3 2 C-2.01 2 -1.02 2 0 2 C0 1.34 0 0.68 0 0 Z " transform="translate(195,370)" style="fill: #DDDDDD;"/><path d="M0 0 C0.66 0.33 1.32 0.66 2 1 C1 4 1 4 -1.3125 5.25 C-4.16597407 6.04631835 -5.24802325 5.8214856 -8 5 C-6.71475739 4.13619741 -5.42157581 3.28419631 -4.125 2.4375 C-3.04605469 1.72400391 -3.04605469 1.72400391 -1.9453125 0.99609375 C-1.30335938 0.66738281 -0.66140625 0.33867187 0 0 Z " transform="translate(201,313)" style="fill: #262626;"/><path d="M0 0 C0.33 0.99 0.66 1.98 1 3 C-1.97 3 -4.94 3 -8 3 C-6.23110084 -0.53779831 -3.70375662 0 0 0 Z " transform="translate(328,279)" style="fill: #030303;"/><path d="M0 0 C0.66 0.33 1.32 0.66 2 1 C0.73058503 4.91402949 -0.51167694 6.79072873 -4 9 C-2.94124926 5.59687262 -1.99097846 2.98646769 0 0 Z " transform="translate(291,243)" style="fill: #5F5F5F;"/><path d="M0 0 C2.76223278 2.76223278 2.57856291 5.20706617 3 9 C2.01 9.33 1.02 9.66 0 10 C0 6.7 0 3.4 0 0 Z " transform="translate(377,206)" style="fill: #1B1B1B;"/><path d="M0 0 C0 3 0 3 -1.3125 4.60546875 C-1.869375 5.12753906 -2.42625 5.64960938 -3 6.1875 C-3.556875 6.71730469 -4.11375 7.24710938 -4.6875 7.79296875 C-5.120625 8.19128906 -5.55375 8.58960938 -6 9 C-6.99 8.67 -7.98 8.34 -9 8 C-6.03 5.36 -3.06 2.72 0 0 Z " transform="translate(297,207)" style="fill: #333333;"/><path d="M0 0 C0.66 0 1.32 0 2 0 C2 1.32 2 2.64 2 4 C2.66 4 3.32 4 4 4 C3.67 5.65 3.34 7.3 3 9 C2.34 8.67 1.68 8.34 1 8 C0.40644386 5.35139573 0.25790731 2.70802678 0 0 Z " transform="translate(331,466)" style="fill: #333333;"/><path d="M0 0 C0.33 0.66 0.66 1.32 1 2 C1.66 2.33 2.32 2.66 3 3 C1.6875 4.5 1.6875 4.5 0 6 C-0.99 6 -1.98 6 -3 6 C-1.125 1.125 -1.125 1.125 0 0 Z " transform="translate(211,352)" style="fill: #D2D2D2;"/><path d="M0 0 C0.33 0.66 0.66 1.32 1 2 C0.01 2.66 -0.98 3.32 -2 4 C-2.33 4.99 -2.66 5.98 -3 7 C-4.65 6.67 -6.3 6.34 -8 6 C-5.38485683 3.87961365 -2.80362384 1.86908256 0 0 Z " transform="translate(322,240)" style="fill: #4A4A4A;"/><path d="M0 0 C0.66 0 1.32 0 2 0 C0.61990379 3.33523252 -0.84950652 5.18607951 -4 7 C-4.99 6.67 -5.98 6.34 -7 6 C-6.030625 5.38125 -5.06125 4.7625 -4.0625 4.125 C-0.97164638 2.34321154 -0.97164638 2.34321154 0 0 Z " transform="translate(272,229)" style="fill: #353535;"/><path d="M0 0 C-0.59861742 2.35171131 -1.26924352 4.6859378 -2 7 C-2.99 7.495 -2.99 7.495 -4 8 C-4.6875 5.6875 -4.6875 5.6875 -5 3 C-3.40083326 0.79162689 -2.76966516 0 0 0 Z " transform="translate(311,216)" style="fill: #7D7D7D;"/><path d="M0 0 C0.99 1.32 1.98 2.64 3 4 C1.68 5.32 0.36 6.64 -1 8 C-1 4.88742431 -0.82638376 2.89234315 0 0 Z " transform="translate(291,136)" style="fill: #626262;"/><path d="M0 0 C-0.78375 0.45375 -1.5675 0.9075 -2.375 1.375 C-5.03698031 2.88428742 -5.03698031 2.88428742 -7 5 C-7 4.34 -7 3.68 -7 3 C-8.32 3.33 -9.64 3.66 -11 4 C-8.94006922 -0.11986157 -4.11800376 -1.37266792 0 0 Z " transform="translate(317,387)" style="fill: #5B5B5B;"/><path d="M0 0 C-1.36983503 3.16115776 -1.9890638 3.9927092 -5 6 C-5 4.68 -5 3.36 -5 2 C-2 0 -2 0 0 0 Z " transform="translate(252,275)" style="fill: #F7F7F7;"/><path d="M0 0 C1.65 0.33 3.3 0.66 5 1 C3.71034824 2.37562854 2.37310707 3.70766393 1 5 C0.34 5 -0.32 5 -1 5 C-1.33 4.01 -1.66 3.02 -2 2 C-1.34 2 -0.68 2 0 2 C0 1.34 0 0.68 0 0 Z " transform="translate(243,274)" style="fill: #111111;"/><path d="M0 0 C-1.98 1.32 -3.96 2.64 -6 4 C-6.99 3.34 -7.98 2.68 -9 2 C-3.375 -1.125 -3.375 -1.125 0 0 Z " transform="translate(345,273)" style="fill: #555555;"/><path d="M0 0 C1.65 0 3.3 0 5 0 C5 0.66 5 1.32 5 2 C6.65 2 8.3 2 10 2 C10.33 2.66 10.66 3.32 11 4 C7.06225823 4.36630156 5.43460229 4.30233203 2.125 2 C1.42375 1.34 0.7225 0.68 0 0 Z " transform="translate(354,251)" style="fill: #494949;"/><path d="M0 0 C0.99 0.99 1.98 1.98 3 3 C3.66 2.34 4.32 1.68 5 1 C5 2.65 5 4.3 5 6 C4.34 6 3.68 6 3 6 C2.67 6.66 2.34 7.32 2 8 C1.34 5.36 0.68 2.72 0 0 Z " transform="translate(389,176)" style="fill: #989898;"/><path d="M0 0 C0.66 0.66 1.32 1.32 2 2 C1.625 4.625 1.625 4.625 1 7 C0.01 7 -0.98 7 -2 7 C-1.42415568 4.61435923 -0.77772405 2.33317216 0 0 Z " transform="translate(393,149)" style="fill: #626262;"/><path d="M0 0 C0.33 0.99 0.66 1.98 1 3 C0.319375 3.61875 0.319375 3.61875 -0.375 4.25 C-2.05950374 6.06408095 -2.99265971 7.75285627 -4 10 C-4.66 9.34 -5.32 8.68 -6 8 C-4.02 5.36 -2.04 2.72 0 0 Z " transform="translate(210,358)" style="fill: #1B1B1B;"/><path d="M0 0 C-0.33 1.32 -0.66 2.64 -1 4 C-1.99 4 -2.98 4 -4 4 C-4 3.34 -4 2.68 -4 2 C-4.99 1.67 -5.98 1.34 -7 1 C-4 0 -4 0 0 0 Z " transform="translate(195,331)" style="fill: #AFAFAF;"/><path d="M0 0 C1.4783226 2.95664519 1.06032783 5.74229737 1 9 C-0.32 8.34 -1.64 7.68 -3 7 C-2.01 4.69 -1.02 2.38 0 0 Z " transform="translate(291,306)" style="fill: #626262;"/><path d="M0 0 C0.66 0.33 1.32 0.66 2 1 C0.07423885 3.43929746 -1.80090595 5.80090595 -4 8 C-4.33 6.68 -4.66 5.36 -5 4 C-3.35 2.68 -1.7 1.36 0 0 Z " transform="translate(242,285)" style="fill: #363636;"/><path d="M0 0 C1.65 0.33 3.3 0.66 5 1 C4.67 1.99 4.34 2.98 4 4 C2.68 3.67 1.36 3.34 0 3 C0 3.66 0 4.32 0 5 C-0.66 4.67 -1.32 4.34 -2 4 C-1.34 2.68 -0.68 1.36 0 0 Z " transform="translate(297,274)" style="fill: #191919;"/><path d="M0 0 C0.33 0 0.66 0 1 0 C1 1.98 1 3.96 1 6 C1.66 6 2.32 6 3 6 C2.34 7.32 1.68 8.64 1 10 C0.34 9.67 -0.32 9.34 -1 9 C-0.67 6.03 -0.34 3.06 0 0 Z " transform="translate(257,261)" style="fill: #323232;"/><path d="M0 0 C0.99 0 1.98 0 3 0 C3.33 0.99 3.66 1.98 4 3 C2.35 4.32 0.7 5.64 -1 7 C-0.67 4.69 -0.34 2.38 0 0 Z " transform="translate(401,257)" style="fill: #333333;"/><path d="M0 0 C0.66 0 1.32 0 2 0 C2.66666667 1.33333333 3.33333333 2.66666667 4 4 C3.01 4 2.02 4 1 4 C0.67 4.66 0.34 5.32 0 6 C-0.66 5.34 -1.32 4.68 -2 4 C-1.34 2.68 -0.68 1.36 0 0 Z " transform="translate(305,256)" style="fill: #858585;"/><path d="M0 0 C0.66 0.33 1.32 0.66 2 1 C2 3.31 2 5.62 2 8 C0.4375 6.8125 0.4375 6.8125 -1 5 C-0.6875 2.3125 -0.6875 2.3125 0 0 Z " transform="translate(282,124)" style="fill: #F9F9F9;"/><path d="M0 0 C0.99 0.33 1.98 0.66 3 1 C1.47764564 4.04470873 -1.18424486 5.20270948 -4 7 C-2.92598892 4.08482708 -2.22189824 2.22189824 0 0 Z " transform="translate(385,113)" style="fill: #B7B7B7;"/></svg>